<svg width="29" height="120" viewBox="0 0 29 120" fill="none" xmlns="http://www.w3.org/2000/svg">
<path d="M7.15919 5.76319C7.3261 6.18255 7.30992 6.80371 7.22985 7.28062C7.20485 7.42737 6.98425 7.38927 6.95802 7.49485C6.90923 7.71538 7.03667 7.8558 6.97227 8.07718C6.94871 8.14319 6.605 8.11998 6.58792 8.18814C6.49814 8.57026 6.63861 8.90868 6.62686 9.28797C6.56902 11.1593 6.73926 13.0022 6.88502 14.8582C6.93686 15.4915 6.75607 16.2802 6.98789 16.8757C7.01545 16.9464 7.29934 16.8555 7.32558 16.8655C7.72842 17.0254 7.12912 17.0479 7.07462 17.2055C6.89269 17.7549 6.91687 18.2655 7.05975 18.7661C7.0825 18.8432 7.10835 18.9189 7.13682 18.9929C7.22281 19.2145 7.7632 18.8897 7.4766 19.1747C7.45732 19.1945 7.13878 19.1861 7.11615 19.2549C7.0654 19.4105 7.16574 19.6785 7.15995 19.7973C7.14724 20.0264 7.1563 20.0625 7.18537 20.2631C7.22264 20.5391 7.12327 20.8968 7.24313 21.1912C7.26964 21.2539 7.57227 21.1158 7.64316 21.2113C7.71477 21.3116 7.73036 21.5763 7.67063 21.6801C7.61065 21.7826 7.35544 21.7848 7.30098 21.8101C6.84074 22.0197 7.55893 22.2245 7.58209 22.2626C7.98607 22.9702 7.70426 23.6338 7.82037 24.3382C7.90575 24.851 8.12412 25.3995 8.18833 25.9006C8.26191 26.4875 8.1746 27.0316 8.29765 27.5991C8.31024 27.6589 8.67109 27.5274 8.68723 27.6003C8.85867 28.3771 8.94743 29.1747 8.8241 29.9988C8.81149 30.0821 8.46787 30.0336 8.43574 30.12C8.2471 30.6534 7.72492 31.5125 9.19561 31.5681C9.19334 31.903 9.20218 32.3173 8.96217 32.651C8.80815 32.8686 8.42219 32.7448 8.61187 32.9503C8.65425 32.9968 8.95509 32.8781 8.99505 32.9516C9.163 33.2614 9.12069 33.6389 9.33563 33.941C9.38008 34.0024 9.65658 33.9384 9.71001 33.9491C10.1437 34.0416 9.51238 34.4114 9.47285 34.477C9.17892 34.9713 9.37486 35.267 9.43288 35.6771C9.4462 35.7724 9.80323 35.5987 9.82954 35.6882C9.96051 36.1505 10.0075 36.6397 9.91677 37.1299C9.89566 37.239 9.56039 37.1968 9.53394 37.2516C9.42122 37.4926 10.0331 37.4421 9.93671 37.6714C9.9171 37.7193 9.63934 37.7396 9.61057 37.7525C9.15895 37.9539 9.84536 37.9523 9.86536 37.9819C10.1334 38.3533 9.47776 38.727 9.641 39.1037C9.66124 39.1486 9.99023 38.9859 10.0259 39.1157C10.2656 39.9789 10.3228 40.9237 10.1881 41.8376C10.1677 41.9796 9.89168 41.9259 9.86099 41.9397C9.38252 42.1603 10.0687 42.1399 10.1013 42.1798C10.3403 42.4974 9.83048 42.915 10.6691 43.0205C10.6329 44.5375 11.3227 45.9303 10.8459 47.5084C10.8406 47.5283 10.5044 47.5493 10.4954 47.5889C10.3829 48.0655 10.8829 47.8954 11.5599 48.0872C11.73 48.1356 11.0081 48.4862 10.9558 48.5153C10.7627 48.6218 10.2583 48.6271 10.2226 48.658C9.944 48.9111 11.5656 48.6104 11.611 48.8835C11.6097 48.8925 11.3043 48.9058 11.2783 48.9336C11.1965 49.0201 11.3271 49.0711 11.2354 49.1577C11.023 49.3562 10.2417 49.5428 10.7418 49.7104C10.8065 49.7313 11.7218 49.5328 11.7181 49.7832C11.7159 49.8832 11.8022 50.3094 11.762 50.4392C11.722 50.5689 11.4111 50.5354 11.3996 50.5461C11.0595 50.9345 10.8764 50.8388 10.3208 51.0969C9.76743 51.3548 11.1435 51.0825 11.3088 51.1234C11.4737 51.1645 11.1883 51.4554 11.0851 51.5323C10.9818 51.6092 10.7808 51.5675 10.7255 51.6298C10.3647 52.0421 11.437 51.6679 11.6752 51.745C12.239 51.9265 11.247 52.3024 11.1865 52.5626C11.1703 52.6335 11.3951 52.5409 11.4267 52.5965C11.5486 52.8171 11.2516 53.0104 11.5888 53.228C11.6438 53.2636 12.2959 53.3769 11.866 53.59C11.804 53.6204 11.5391 53.6066 11.4982 53.7153C11.4366 53.8778 11.4246 54.1538 11.5361 54.2986C11.6187 54.4057 12.0177 54.2011 11.9114 54.3717C11.8638 54.4476 11.5972 54.3652 11.5284 54.5045C11.4596 54.6431 11.5224 54.9575 11.5506 55.076C11.579 55.1944 11.8878 55.0763 11.9109 55.0825C12.0439 55.1208 12.2357 55.3251 12.2387 55.3454C12.445 56.3569 12.0625 57.3946 12.4049 58.3631C12.4313 58.4394 12.7597 58.3316 12.7672 58.3427C12.9526 58.5881 12.0218 58.5238 11.7528 58.7606C12.4322 58.621 12.3265 58.7521 12.4325 58.9281C12.4842 59.0128 12.7408 58.9198 12.7693 58.9236C13.1936 58.992 12.6895 59.1708 12.5872 59.2124C12.2109 59.3655 12.6887 59.386 12.4373 59.4893C12.1879 59.5922 11.7806 59.5169 11.8151 59.6955C12.0681 59.7055 12.6859 59.4671 12.812 59.5862C13.2908 60.0479 12.9467 61.0897 12.9635 61.5169C12.9805 61.9449 13.0477 62.0714 12.9991 62.328C12.911 62.7904 13.3593 62.5524 13.6209 62.7861C13.8824 63.0193 12.6933 63.0823 12.4486 63.1622C12.2041 63.2425 12.4694 63.2425 12.3395 63.3136C12.2095 63.3845 12.0216 63.3083 11.9885 63.4301C11.9555 63.5523 12.4527 63.7871 12.7217 63.7835C13.2917 63.7761 13.8526 63.5418 13.6964 63.8723C13.687 63.8914 13.3709 63.8867 13.3506 63.957C13.1988 64.5094 13.2743 65.0586 13.1506 65.6111C13.1331 65.687 12.781 65.6797 12.767 65.7245C12.6194 66.1905 13.1699 65.9417 13.8484 66.0704C12.9883 66.1586 12.4883 66.3715 12.5384 66.7063C12.5679 66.906 12.9341 66.8103 13.2173 66.8953C13.3027 66.9208 13.0704 67.1027 13.2495 67.099C13.8348 67.0878 14.4533 66.8519 14.2539 67.2302C14.2442 67.2469 13.9236 67.2517 13.913 67.3057C13.8432 67.6549 14.447 67.5914 14.5796 67.9445C14.6834 68.22 14.4011 68.7786 14.3935 69.1013C13.4345 69.2486 13.705 69.5234 14.3853 69.5372C14.3929 69.7515 14.4672 69.9696 14.4088 70.1833C14.389 70.2568 14.1045 70.2577 14.0759 70.2712C13.628 70.4809 14.2847 70.4633 14.3171 70.503C14.6426 70.9513 14.2227 71.4356 14.773 71.8089C14.7881 71.819 15.1813 71.7726 15.16 71.8393C15.1536 71.8611 15.1072 71.894 14.9971 71.9431C14.965 71.9568 14.6366 71.85 14.6501 72.0773C14.6637 72.3048 14.3756 72.777 14.7326 73.0216C14.8185 73.0801 15.3886 73.1742 14.9924 73.3977C14.9384 73.4273 14.7441 73.4368 14.6428 73.4835C14.3202 73.6335 15.0007 73.5733 14.4479 73.7771C13.8951 73.9808 13.5051 74.2782 13.9482 74.5099C13.9611 74.5169 14.5056 74.5004 14.5136 74.601C14.5258 74.7604 14.4512 74.9985 14.4811 75.1568C14.4955 75.2327 14.8182 75.1291 14.8264 75.1413C15.094 75.6065 14.8653 76.054 14.8257 76.6072C14.8181 76.7103 15.3192 76.937 14.9948 77.1897C14.64 77.468 12.9801 77.5197 13.4479 77.942C13.6367 78.1216 15.7393 78.0358 14.7301 78.5619C15.1124 79.225 14.6714 79.9457 15.1663 80.584C15.1883 80.6129 15.7797 80.6159 15.784 80.6897C15.7894 80.7997 15.5304 80.9026 15.5254 80.9811C15.5022 81.3392 15.7776 81.5721 15.7976 81.9097C15.8049 82.032 15.5202 82.0373 15.5283 82.1807C15.5361 82.3203 15.9187 82.3588 15.775 82.5837C15.6655 82.7556 14.9401 83.0125 14.8876 83.2321C15.6261 83.1145 15.6343 83.2554 15.8674 83.4499C15.9129 83.4891 16.1611 83.396 16.1959 83.4129C16.3436 83.4817 16.145 83.6003 16.303 83.6588C16.341 83.6731 16.5929 83.6312 16.6382 83.6404C17.0319 83.7125 16.5059 84.0456 16.4141 84.1019C16.0659 84.3198 16.4035 84.3238 16.2774 84.4738C16.1504 84.618 15.9357 84.472 15.87 84.6257C15.7317 84.9303 15.8369 85.299 15.8742 85.5825C15.8908 85.6962 16.2132 85.5607 16.2234 85.5755C16.3507 85.8032 16.035 86.1022 16.7264 86.1134C15.0274 86.5868 16.9193 86.2276 16.6334 86.625C16.6104 86.6573 15.7997 86.8397 15.6607 86.7553C15.5234 86.6794 15.7503 86.4739 15.5383 86.3655C15.4875 86.3347 14.6888 86.284 14.6373 86.2629C14.237 86.1125 15.4557 85.8792 15.5206 85.8545C16.2226 85.6001 15.3574 85.5155 15.289 85.4594C14.9786 85.2216 15.1089 84.9493 14.8817 84.7443C14.7333 84.6029 13.9308 84.7307 13.9346 84.6053C13.9448 84.176 15.0402 83.8548 14.0061 83.6354C13.7855 83.5888 12.9242 83.8218 13.5623 83.4069C13.602 83.3776 14.1958 83.0573 13.7763 83C13.7234 82.9927 13.4683 83.0363 13.4433 83.0191C13.2814 82.9046 13.467 82.7653 13.3451 82.6357C13.2228 82.5043 13.0468 82.3459 13.1032 82.1513C13.1367 82.0344 13.5912 81.8284 13.699 81.7578C14.011 81.5618 13.4351 81.4996 13.8261 81.3409C14.2194 81.1827 14.8681 81.2503 15.0935 80.9769C14.4288 81.0797 13.7448 81.1745 13.0756 81.2728C13.0143 80.7638 13.1457 80.231 13.0299 79.7176C13.0153 79.6567 12.6692 79.7793 12.6444 79.7154C12.5415 79.4476 12.7516 79.1408 12.6018 78.8658C12.4847 78.6552 12.0652 78.4662 11.929 78.235C12.6628 77.9571 12.3484 77.659 12.3738 77.3826C12.3825 77.2867 12.5862 77.2591 12.6414 77.1822C12.8446 76.892 12.1931 77.1198 12.0766 77.0715C11.5796 76.8672 13.0941 76.5916 13.0004 76.2589C12.9959 76.2415 12.1497 76.1536 12.0941 76.1307C11.7329 75.9894 12.37 76.0486 12.4103 75.9213C12.4843 75.6905 12.6528 75.509 12.373 75.2908C12.2903 75.2273 11.7557 75.1294 12.1212 74.9152C12.169 74.8871 12.4384 74.8536 12.4514 74.8352C12.6674 74.5189 11.8257 74.6518 11.5149 74.5415C11.2042 74.4315 11.7435 74.0878 11.9023 74.0092C12.313 73.8048 12.1041 74.0802 12.1476 74.08C12.6668 74.0801 12.55 73.9144 12.5695 73.7675C13.3905 73.6111 13.3085 73.4228 12.5864 73.6155C12.5076 73.6369 12.6026 73.7333 12.5695 73.7675C11.74 73.7755 11.6024 73.5876 12.3203 73.2337C12.6567 73.0671 13.0868 73.1022 12.8811 72.797C12.7879 72.6576 12.23 72.8098 12.0531 72.7016C11.9162 72.6175 11.8789 72.5052 11.884 72.3811C11.896 72.1518 12.0691 71.8781 11.9799 71.6812C11.9309 71.5729 11.6385 71.7347 11.5943 71.6624C11.4759 71.4706 11.6786 71.2479 11.5245 71.0574C11.5102 71.041 11.1924 71.1393 11.1779 71.0774C11.0617 70.6089 11.1995 70.1477 11.1205 69.6331C11.0835 69.393 10.8323 68.9872 10.8261 68.725C10.8123 68.2643 11.1984 67.6597 11.021 67.2997C10.9068 67.0658 10.5904 67.1732 10.3513 67.1039C9.88754 66.9681 10.5983 66.484 10.7097 66.4175C10.7134 66.4155 10.8244 66.611 10.9731 66.4724C11.3104 66.3505 10.7116 66.4196 10.7097 66.4175C10.7816 66.3739 10.7864 65.943 10.7103 65.8691C10.6689 65.8292 10.3648 65.9054 10.349 65.8837C9.97944 65.3604 9.80903 64.8146 9.85892 64.2189C9.86349 64.2078 10.2108 64.1662 10.2172 64.1408C10.3161 63.7852 9.85786 63.6334 9.56347 63.4076C9.26869 63.1788 9.31698 62.9492 9.88229 62.6903C9.7739 62.4969 9.98669 62.157 10.1172 61.9592C10.2477 61.7612 9.57272 61.8485 9.55702 61.8359C9.05633 61.444 9.39624 61.112 9.37608 60.6164C9.3674 60.3791 9.19506 59.9394 9.08101 59.7044C8.98963 59.5181 9.12743 59.3738 8.997 59.2088C8.97952 59.1864 8.68477 59.2604 8.67203 59.2548C8.28114 59.1109 9.02771 59.0881 9.1513 59.0248C9.60077 58.7947 9.83803 58.6593 9.57187 58.4349C9.51068 58.3821 8.43047 58.383 8.35111 58.2846C8.24988 58.1565 8.63568 58.1477 8.52004 58.015C8.51049 58.0036 8.27832 58.0445 8.27356 57.9515C8.24852 57.5211 8.30693 57.031 8.21112 56.5938C8.19896 56.5342 7.84266 56.6718 7.81902 56.5866C7.70838 56.1869 7.64835 55.7365 7.75528 55.308C7.78276 55.2024 8.05125 55.2216 8.12444 55.1876C8.56696 54.9801 7.86199 54.9045 7.84423 54.8768C7.40095 54.2046 7.91872 53.5414 7.50621 52.8469C7.48253 52.8094 6.70852 52.6172 7.30569 52.3763C7.34538 52.3601 7.95713 52.1184 7.50344 52.068C7.47506 52.0649 7.16259 52.2043 7.17129 52.0492C7.17992 51.894 6.92224 51.6888 7.24717 51.4236C7.34943 51.3395 7.95702 51.0823 7.4208 50.9714C7.38351 50.9645 6.19384 50.8526 6.96318 50.6164C7.08986 50.5778 7.92558 50.4592 7.46058 50.2977C7.37054 50.267 7.198 50.3778 7.06286 50.2803C6.85475 50.1309 7.03887 49.8573 6.63178 49.6981C6.55981 49.6705 5.96777 49.5999 6.37534 49.399C6.43917 49.3675 6.72356 49.3607 6.74334 49.2866C6.83871 48.934 6.5963 48.6207 6.73388 48.2554C6.78207 48.1262 7.24143 48.1128 7.34164 47.9699C7.44182 47.8269 7.51687 47.5595 7.29034 47.4643C7.06372 47.3692 6.37053 47.6275 6.28152 47.4439C5.89482 46.6454 6.17858 45.7449 6.10246 44.8961C6.09124 44.7703 5.85183 44.9154 5.81692 44.733C5.68729 44.0622 5.25516 42.9321 5.70406 42.2589C6.06342 41.7184 6.49235 42.2545 6.61102 41.8664C6.66721 41.6788 5.80365 41.6277 5.77056 41.5901C5.43718 41.2247 5.75958 40.8806 5.5863 40.5325C5.55041 40.4606 5.22503 40.5902 5.19822 40.5284C5.10376 40.3189 5.21609 40.0603 5.15392 39.8537C5.12524 39.761 4.8703 39.8207 4.8759 39.7302C4.88635 39.5143 4.96454 39.3124 5.17295 39.07C5.19194 39.048 5.53305 39.12 5.51977 38.9642C5.49729 38.7118 5.68552 38.3667 5.39188 38.1173C5.30383 38.0439 4.71406 38.137 5.09091 37.8869C5.16959 37.8345 5.88513 37.7676 5.23884 37.6542C5.13136 37.6349 4.24813 37.4119 4.75096 37.1497C4.88328 37.0806 5.44292 36.8678 5.33525 36.7809C5.31847 36.7695 5.01105 36.8766 4.96636 36.7973C4.81449 36.5176 4.7961 36.1936 4.64674 35.9032C4.6062 35.8255 4.29872 36.0014 4.24876 35.884C4.11075 35.5602 4.12631 35.1323 4.17465 34.7847C4.19308 34.6563 4.47819 34.6963 4.50626 34.6826C4.96309 34.4612 4.30113 34.4831 4.2556 34.442C3.98118 34.1851 4.24916 33.9124 4.1246 33.6568C4.09105 33.5861 3.7906 33.6893 3.76062 33.6791C3.46632 33.5702 4.04 33.5932 4.08534 33.4865C4.21458 33.1893 4.13927 32.885 4.05453 32.615C4.02294 32.5158 3.68327 32.6886 3.65907 32.599C3.50881 32.0682 3.45337 31.5141 3.56378 30.949C3.5854 30.8436 3.87156 30.8609 3.93121 30.8299C4.34885 30.6152 3.71337 30.5056 3.64827 30.4673C3.35116 30.293 3.58146 30.1691 3.50476 29.9861C3.12336 29.0777 3.09601 27.895 3.05105 26.9923C2.99074 25.8155 3.10628 24.8724 2.85916 23.7869C2.84392 23.7185 2.48814 23.848 2.47029 23.7899C2.25287 23.0141 2.27408 22.2411 2.03875 21.4651C2.0203 21.4026 1.68724 21.5512 1.64594 21.4529C1.55841 21.2493 1.53637 20.9948 1.61092 20.7521C1.64719 20.6373 1.96901 20.7309 1.99944 20.6164C2.071 20.3501 2.05319 20.0845 1.95734 19.8475C1.9158 19.7468 1.58551 19.9625 1.55929 19.8274C1.5484 19.7735 1.53746 19.7199 1.52659 19.6666C1.34456 18.7648 1.17642 17.9128 1.46374 16.9392C1.48468 16.868 2.19878 16.6924 2.03756 16.5765C1.83507 16.5987 1.59896 16.6376 1.3836 16.6679C1.04445 15.3092 1.07721 13.9219 0.892412 12.5278C0.884413 12.4682 0.517457 12.6323 0.500061 12.5176C0.403461 11.8816 0.191548 11.2409 0.467309 10.5204C0.493913 10.4476 1.17376 10.3721 1.04092 10.1955C1.01737 10.1677 0.879973 9.88475 0.72121 9.83083C0.697477 9.82405 0.391056 9.92778 0.366797 9.83451C0.231302 9.2913 0.211755 8.70243 0.317779 8.11819C0.335628 8.02462 0.68587 8.06639 0.701567 7.99973C0.809787 7.5228 0.478238 7.06901 0.718266 6.57512C0.880329 6.24055 1.47745 6.26965 2.02854 6.03145C2.1062 6.00077 2.09426 5.79081 2.42828 5.73994C3.26853 5.6458 4.19634 5.62124 5.09024 5.50372C5.27976 5.41535 5.07971 5.64285 5.54479 5.50873C5.57201 5.42625 5.72885 5.45315 5.89346 5.48276C6.00503 5.48822 6.33991 5.41096 6.48462 5.43268C6.62996 5.45984 6.35318 5.55237 6.52913 5.61543C6.70862 5.68787 7.08638 5.58315 7.15919 5.76319ZM10.7014 61.0799C10.9979 60.87 9.81355 61.0411 10.1239 61.1643C10.1403 61.1701 10.6869 61.0906 10.7014 61.0799ZM14.0357 80.0816C14.5219 79.7893 13.7323 79.7717 13.3551 79.987C12.9782 80.2015 13.8884 80.1702 14.0357 80.0816ZM14.7729 82.1493C15.1425 81.8381 13.4628 82.0801 13.8449 82.284C13.8665 82.2958 14.7514 82.1673 14.7729 82.1493ZM2.29548 6.734C2.31061 6.72788 2.30729 6.60092 2.29137 6.60073C1.90551 6.58951 1.91274 6.84575 2.29548 6.734ZM15.544 84.1931C15.7569 84.0762 15.4593 83.9068 15.1936 84.0462C14.9796 84.1571 15.2789 84.337 15.544 84.1931ZM10.6114 52.6639C10.6285 52.6583 10.6295 52.565 10.5303 52.5832C10.211 52.6419 10.3223 52.7538 10.6114 52.6639ZM16.2015 87.7845C16.1599 87.2371 17.4816 86.6685 17.4321 87.2644C17.4235 87.3722 16.9509 87.1251 16.8516 87.2799C16.6719 87.5681 17.566 87.5539 17.1529 87.8927C17.0772 87.9543 16.201 87.8179 16.1994 87.7839C16.2001 87.7841 16.2008 87.7843 16.2015 87.7845ZM12.1044 60.7561C12.1195 60.7505 12.1136 60.6219 12.0976 60.6214C11.7116 60.6148 11.7234 60.8738 12.1044 60.7561ZM10.4676 47.2234C10.4997 47.211 10.4827 46.9126 10.4505 46.9082C9.81248 46.8559 9.84502 47.4591 10.4676 47.2234ZM14.3687 69.1104C14.7684 69.1852 14.8408 69.3481 14.3856 69.5365C14.388 69.3947 14.3681 69.2511 14.3687 69.1104Z" fill="#FFAE00"/>
<path d="M28.0204 6.95479C28.1192 7.43023 27.9932 8.02411 27.8258 8.47211C27.7738 8.61498 27.5641 8.53897 27.5188 8.63119C27.4303 8.81199 27.5276 9.0029 27.4226 9.18003C27.3867 9.24077 27.054 9.15081 27.0241 9.21487C26.862 9.5679 26.9337 9.90023 26.8461 10.2568C26.4142 11.9996 26.1869 13.7036 25.9206 15.4458C25.8321 16.0339 25.4807 16.7151 25.5729 17.3121C25.5838 17.3831 25.8808 17.3618 25.9041 17.3768C26.2606 17.6124 25.6718 17.5014 25.5832 17.634C25.2346 18.1444 25.1634 18.7582 25.2399 19.2721C25.2729 19.4965 25.8731 19.3173 25.529 19.5167C25.5057 19.5307 25.1976 19.4513 25.1598 19.5099C25.0748 19.6421 25.1108 19.9149 25.0786 20.0132C25.0144 20.211 25.015 20.2449 24.9969 20.4381C24.9696 20.7015 24.7897 21.0165 24.8395 21.2965C24.851 21.3577 25.177 21.3026 25.2242 21.4026C25.2712 21.5023 25.2245 21.7567 25.1423 21.8385C25.0601 21.92 24.8115 21.8634 24.7526 21.8744C24.2562 21.965 24.9069 22.3162 24.9209 22.3523C25.1516 23.0592 24.7199 23.6352 24.6691 24.2827C24.63 24.7924 24.7156 25.3089 24.6591 25.7871C24.5899 26.3626 24.3797 26.7951 24.363 27.3558C24.3609 27.4144 24.7426 27.3773 24.7408 27.449C24.7393 27.5069 24.7373 27.5649 24.7348 27.623C24.735 27.633 24.7301 27.6626 24.73 27.6725C24.6844 28.3508 24.555 29.0391 24.2445 29.6962C24.2103 29.7683 23.8919 29.6348 23.8382 29.7046C23.516 30.1356 22.7862 30.767 24.1875 31.2084C24.0965 31.5094 23.9965 31.8714 23.6757 32.1158C23.4692 32.273 23.1307 32.0581 23.2584 32.2955C23.2867 32.3491 23.6082 32.3207 23.6269 32.3984C23.7058 32.7244 23.5653 33.0445 23.6915 33.3726C23.718 33.4391 24.0013 33.4548 24.0499 33.4784C24.4428 33.6754 23.7354 33.847 23.6798 33.8953C23.2649 34.2587 23.3743 34.5752 23.32 34.9593C23.3072 35.0485 23.6975 34.9872 23.6988 35.0747C23.7004 35.5266 23.6144 35.9751 23.3948 36.3932C23.345 36.4858 23.0339 36.3582 22.9936 36.4005C22.82 36.5883 23.4226 36.704 23.2682 36.8824C23.2364 36.9201 22.9637 36.8643 22.9326 36.8681C22.4438 36.9282 23.1045 37.1101 23.1158 37.142C23.2733 37.5469 22.5412 37.7106 22.5965 38.0905C22.6038 38.1359 22.9642 38.0789 22.9635 38.2038C22.9608 39.0387 22.7593 39.9019 22.3809 40.6871C22.3225 40.8096 22.0719 40.6866 22.0387 40.6907C21.5185 40.7606 22.1838 40.9266 22.2042 40.971C22.3477 41.3188 21.744 41.5548 22.5213 41.8756C22.0728 43.2259 22.3544 44.6601 21.4632 45.943C21.4527 45.9594 21.124 45.8868 21.1045 45.9197C20.8656 46.3155 21.3925 46.2994 21.9901 46.6557C22.1401 46.7454 21.3504 46.8631 21.2921 46.8748C21.0774 46.9175 20.5915 46.7848 20.5487 46.8027C20.2116 46.9533 21.8517 47.1265 21.8202 47.3826C21.8165 47.3903 21.5195 47.3191 21.4869 47.3368C21.3845 47.3918 21.4959 47.473 21.3841 47.5254C21.1255 47.6449 20.3239 47.5987 20.758 47.885C20.8144 47.9214 21.748 47.9934 21.6755 48.2166C21.6459 48.3055 21.6112 48.7111 21.5368 48.8166C21.4626 48.9221 21.1733 48.807 21.1593 48.8134C20.7257 49.068 20.5762 48.9321 19.9716 49.0109C19.3693 49.0899 20.7657 49.2225 20.9131 49.3041C21.0601 49.3858 20.7058 49.5678 20.5855 49.6082C20.4651 49.6487 20.2837 49.5565 20.2134 49.5971C19.7532 49.8671 20.886 49.8258 21.0934 49.9601C21.5845 50.2772 20.5282 50.3428 20.3982 50.5596C20.363 50.6183 20.6044 50.5972 20.6194 50.6553C20.6756 50.885 20.3371 50.9761 20.6008 51.2622C20.6437 51.3091 21.2383 51.5898 20.7666 51.6628C20.6987 51.673 20.4483 51.5879 20.3788 51.6741C20.2747 51.8029 20.1867 52.0472 20.2536 52.2079C20.3031 52.3266 20.7428 52.2535 20.5935 52.3761C20.5269 52.4305 20.2937 52.2844 20.1893 52.3892C20.0849 52.4934 20.0583 52.7898 20.0525 52.9044C20.0469 53.0182 20.376 52.9974 20.3965 53.0092C20.5134 53.0801 20.6409 53.316 20.6381 53.335C20.5551 54.3005 19.9001 55.1193 19.9593 56.0787C19.9635 56.1541 20.3085 56.1485 20.3126 56.1604C20.4222 56.4307 19.5471 56.1165 19.223 56.2537C19.9137 56.3165 19.7759 56.4045 19.8286 56.5911C19.8545 56.681 20.1266 56.6688 20.1529 56.6801C20.5409 56.8584 20.0075 56.8791 19.8978 56.888C19.4941 56.921 19.9467 57.0714 19.6768 57.0944C19.4088 57.1177 19.0392 56.9367 19.0223 57.1075C19.2622 57.1871 19.9215 57.1428 20.009 57.2861C20.3399 57.8291 19.7195 58.6632 19.6157 59.0536C19.5127 59.4383 19.5419 59.5694 19.4237 59.7842C19.2101 60.1707 19.7062 60.0859 19.8913 60.37C20.0763 60.6555 18.9189 60.3781 18.6618 60.3824C18.4049 60.3859 18.6593 60.4591 18.5149 60.4861C18.3704 60.5129 18.2115 60.3936 18.1458 60.4922C18.0801 60.5911 18.4914 60.9363 18.7504 61.0076C19.2991 61.1586 19.9024 61.1062 19.6604 61.356C19.6461 61.3702 19.3442 61.2786 19.3051 61.3353C19.0035 61.7968 18.923 62.2998 18.6496 62.7569C18.6113 62.8208 18.276 62.7154 18.2498 62.7521C17.9768 63.1327 18.5747 63.0618 19.1885 63.3691C18.3394 63.207 17.7997 63.2626 17.7546 63.5679C17.7272 63.7512 18.1051 63.7684 18.3529 63.9213C18.4279 63.9659 18.1537 64.0665 18.3263 64.1131C18.8904 64.2675 19.5498 64.2277 19.2518 64.514C19.2377 64.5265 18.9291 64.4406 18.9038 64.4865C18.7381 64.7823 19.3341 64.8986 19.363 65.2415C19.3861 65.5081 18.9564 65.9403 18.8578 66.2283C17.8967 66.0956 18.08 66.4042 18.7281 66.6064C18.6747 66.8012 18.6841 67.0184 18.5675 67.1945C18.5277 67.2551 18.2549 67.1757 18.2237 67.1799C17.7352 67.2425 18.3692 67.4118 18.389 67.4569C18.5759 67.9342 18.035 68.2605 18.4562 68.7494C18.4714 68.7668 19.1362 68.8806 18.6332 68.9297C18.5985 68.9332 18.3137 68.7493 18.2629 68.9506C18.2115 69.1571 17.8015 69.4978 18.0738 69.8182C18.1393 69.8952 18.6585 70.1399 18.2156 70.2269C18.1556 70.2381 17.9668 70.1917 17.8565 70.2047C17.505 70.2472 18.1738 70.3856 17.5865 70.411C17.0095 70.4359 16.5573 70.5856 16.8815 70.9055C16.8872 70.9115 16.8932 70.9175 16.8994 70.9236C16.9096 70.9345 17.4353 71.0763 17.4145 71.1669C17.3808 71.3118 17.2417 71.5017 17.2252 71.6504C17.2175 71.7217 17.5558 71.7211 17.5603 71.7342C17.6826 72.2325 17.3379 72.5505 17.1397 73.0449C17.1023 73.1391 17.5178 73.4759 17.1351 73.6066C16.7158 73.7529 15.1144 73.3161 15.4381 73.8422C15.567 74.0563 17.606 74.5571 16.4861 74.7589C16.663 75.4386 16.029 75.9776 16.3175 76.6749C16.3307 76.703 16.8938 76.8835 16.8761 76.9519C16.8486 77.0544 16.571 77.0725 16.5429 77.1426C16.4202 77.4246 16.6084 77.756 16.5312 78.039C16.5017 78.152 16.2286 78.0724 16.1937 78.2045C16.1589 78.3376 16.5147 78.4686 16.3099 78.6328C16.1542 78.7549 15.386 78.77 15.2711 78.945C16.01 79.0599 15.9757 79.1879 16.1394 79.4303C16.1709 79.479 16.4353 79.4703 16.4634 79.4958C16.5835 79.6008 16.3587 79.6463 16.4916 79.7453C16.5234 79.7693 16.7759 79.8077 16.8162 79.8294C17.1696 80.0097 16.5672 80.153 16.4632 80.1721C16.0668 80.2538 16.3843 80.3747 16.2197 80.4622C16.0553 80.5485 15.8952 80.358 15.7862 80.4707C15.5603 80.7068 15.5486 81.0501 15.494 81.3177C15.4741 81.423 15.8222 81.4046 15.8271 81.4209C15.8772 81.6557 15.4822 81.8233 16.1323 82.0529C14.3743 81.9214 16.2781 82.2157 15.8768 82.4756C15.8444 82.4958 15.021 82.3858 14.9175 82.2689C14.8136 82.1554 15.0939 82.0551 14.9285 81.8918C14.8907 81.8478 14.151 81.5524 14.109 81.5172C13.776 81.2717 15.0051 81.4413 15.0741 81.4417C15.8185 81.4448 15.0268 81.0863 14.9777 81.0257C14.7571 80.7212 14.9649 80.5183 14.8103 80.276C14.711 80.1148 13.9112 79.9691 13.9519 79.8667C14.0897 79.5038 15.2306 79.5385 14.3106 79.0398C14.1144 78.9331 13.2241 78.8835 13.9558 78.7066C14.0027 78.6907 14.663 78.5903 14.2805 78.4125C14.2322 78.3904 13.976 78.3537 13.9573 78.331C13.8374 78.178 14.0541 78.12 13.9763 77.9676C13.8983 77.8167 13.7793 77.6093 13.8879 77.4699C13.9535 77.3821 14.4489 77.3244 14.5725 77.2934C14.9286 77.2054 14.3964 76.9862 14.8155 76.9645C15.2369 76.9407 15.8366 77.1895 16.132 77.0112C15.4672 76.909 14.7864 76.794 14.1186 76.6864C14.2099 76.209 14.4902 75.7752 14.5266 75.2972C14.5306 75.2367 14.164 75.2483 14.1591 75.1821C14.141 74.8943 14.4257 74.7173 14.3635 74.4171C14.3147 74.1788 13.9652 73.9109 13.9011 73.6682C14.6828 73.6323 14.4695 73.2641 14.5717 73.0347C14.6074 72.9532 14.8102 72.9866 14.8849 72.9349C15.162 72.7381 14.4735 72.754 14.3761 72.6762C13.9613 72.3371 15.4876 72.536 15.493 72.2134C15.4938 72.1968 14.7086 71.8807 14.6619 71.8449C14.3564 71.6179 14.949 71.8532 15.0245 71.7467C15.1625 71.5534 15.3745 71.4475 15.1689 71.174C15.1078 71.0945 14.6237 70.8572 15.0345 70.7707C15.0883 70.7593 15.3557 70.8056 15.3734 70.7929C15.4105 70.7641 15.4299 70.7369 15.435 70.7111C15.4697 70.5387 14.7938 70.426 14.5607 70.2636C14.2945 70.0782 14.9085 69.9249 15.0829 69.8998C15.5342 69.834 15.2559 70.0197 15.2977 70.0318C15.7949 70.1782 15.7301 69.998 15.7905 69.8731C16.6211 69.9653 16.5959 69.7751 15.8498 69.7429C15.7682 69.7398 15.8318 69.8521 15.7905 69.8731C14.9937 69.647 14.9153 69.4408 15.7034 69.3266C16.0729 69.2727 16.4748 69.4252 16.3645 69.0946C16.3148 68.9439 15.7373 68.9226 15.5986 68.7764C15.2831 68.4344 15.8616 68.1554 15.8173 67.8469C15.801 67.7362 15.4751 67.7987 15.4532 67.7215C15.3942 67.5168 15.6517 67.3727 15.5566 67.1688C15.5476 67.1501 15.2152 67.149 15.2189 67.0891C15.2402 66.6373 15.5044 66.2494 15.5714 65.7866C15.6041 65.5595 15.4783 65.1225 15.5463 64.8858C15.6605 64.4882 16.2026 64.0418 16.134 63.669C16.0898 63.4324 15.7564 63.4392 15.5464 63.3124C15.1393 63.0678 15.9568 62.8323 16.0825 62.8022C16.0866 62.8015 16.1378 63.0097 16.3194 62.9259C16.6772 62.9102 16.0837 62.8047 16.0825 62.8022C16.1637 62.7833 16.2902 62.393 16.2378 62.3073C16.2091 62.2607 15.8963 62.2438 15.8872 62.2203C15.6779 61.6639 15.6697 61.112 15.8834 60.6016C15.8908 60.593 16.2355 60.6522 16.2488 60.6314C16.4429 60.3427 16.0449 60.0886 15.8266 59.7987C15.6086 59.5072 15.7187 59.3183 16.3332 59.2443C16.2831 59.0427 16.5819 58.7998 16.7622 58.6604C16.9425 58.5211 16.2708 58.4114 16.2593 58.3956C15.8894 57.8994 16.3073 57.7032 16.4261 57.2553C16.4836 57.043 16.4411 56.6001 16.3971 56.3593C16.3613 56.1676 16.5336 56.0768 16.4544 55.8937C16.4438 55.8689 16.1404 55.8537 16.1298 55.8451C15.7948 55.609 16.5174 55.7945 16.6536 55.7721C17.1488 55.6908 17.4141 55.6354 17.2211 55.3621C17.1768 55.2995 16.1403 55.0017 16.0915 54.8919C16.0299 54.7494 16.4026 54.8479 16.3285 54.6973C16.3225 54.6844 16.0884 54.657 16.1097 54.5726C16.2053 54.1805 16.3973 53.7596 16.4263 53.3449C16.4312 53.2881 16.0511 53.3133 16.0521 53.2305C16.0568 52.8423 16.1243 52.4212 16.3453 52.0704C16.4008 51.9842 16.6533 52.0747 16.7329 52.0646C17.215 52.0015 16.5591 51.7418 16.5498 51.7115C16.3108 50.986 16.9906 50.5396 16.7864 49.8055C16.7741 49.7653 16.0841 49.3814 16.7239 49.3293C16.7665 49.3256 17.4205 49.2769 16.9988 49.108C16.9724 49.0975 16.634 49.1365 16.6851 49.0006C16.7361 48.8646 16.5452 48.6114 16.9302 48.4639C17.0515 48.4172 17.7059 48.3527 17.2215 48.1069C17.1876 48.0906 16.076 47.6657 16.8798 47.6645C17.0121 47.6646 17.8473 47.7865 17.4452 47.5153C17.3672 47.4634 17.171 47.5154 17.0681 47.3914C16.9093 47.2013 17.1613 47.0073 16.814 46.7547C16.7525 46.7105 16.2032 46.4867 16.6499 46.418C16.7199 46.4072 16.9949 46.4786 17.0342 46.4177C17.2227 46.1286 17.076 45.7819 17.3083 45.4933C17.39 45.391 17.8349 45.5038 17.9704 45.4034C18.1059 45.3029 18.2512 45.0848 18.0596 44.9385C17.868 44.792 17.1312 44.835 17.0961 44.6464C16.9435 43.8266 17.4622 43.1005 17.6206 42.3212C17.6442 42.2059 17.3745 42.2707 17.3907 42.0986C17.4494 41.4621 17.3406 40.3435 17.9557 39.8563C18.4481 39.4685 18.7148 40.064 18.9343 39.7488C19.0392 39.5965 18.2227 39.3197 18.2011 39.2774C17.9792 38.865 18.3829 38.64 18.3106 38.2815C18.2955 38.2074 17.9475 38.2363 17.9385 38.1738C17.9045 37.9597 18.0822 37.7611 18.078 37.5614C18.0754 37.4715 17.814 37.4572 17.8438 37.3778C17.9124 37.1864 18.0422 37.026 18.3081 36.8644C18.3323 36.8497 18.641 37.0055 18.6703 36.8622C18.7168 36.6302 18.9912 36.3696 18.7753 36.0732C18.7103 35.9837 18.1178 35.91 18.5478 35.7859C18.6376 35.7599 19.3441 35.8905 18.7528 35.6167C18.6546 35.5706 17.8647 35.1362 18.4189 35.0358C18.5648 35.0092 19.1605 34.9676 19.0801 34.8616C19.0671 34.847 18.7425 34.8611 18.7207 34.7785C18.6497 34.4871 18.7188 34.1923 18.6527 33.8938C18.6344 33.8139 18.2914 33.8895 18.2747 33.7717C18.2281 33.449 18.3579 33.0657 18.4972 32.7673C18.5491 32.6579 18.813 32.7684 18.8437 32.7635C19.3425 32.6865 18.6992 32.5323 18.6663 32.4839C18.4703 32.1829 18.8001 32.0173 18.7488 31.7494C18.7353 31.6765 18.4185 31.6906 18.3923 31.6733C18.138 31.497 18.6843 31.6694 18.7564 31.5847C18.9604 31.3478 18.9679 31.061 18.9573 30.8015C18.9529 30.7061 18.5801 30.7701 18.5804 30.6851C18.5767 30.1655 18.6691 29.6576 18.9238 29.1834C18.9723 29.0943 19.2436 29.1842 19.3093 29.1718C19.7684 29.0872 19.1845 28.8244 19.1318 28.7734C18.891 28.5409 19.1454 28.49 19.1192 28.3077C19.0622 27.9099 19.0843 27.4777 19.1412 27.0648L19.1325 27.1548C19.1949 26.5924 19.3159 26.0605 19.411 25.5968C19.6306 24.5113 19.9626 23.7 19.9755 22.6557C19.9767 22.5891 19.6006 22.6268 19.5968 22.5691C19.5644 21.8365 19.7655 21.1187 19.7133 20.3827C19.7098 20.3211 19.3515 20.3825 19.334 20.2828C19.2956 20.078 19.3335 19.8294 19.4604 19.6412C19.5216 19.5494 19.8138 19.7003 19.8692 19.6075C19.9988 19.3945 20.043 19.1366 20.0036 18.9004C19.9861 18.7989 19.6154 18.9229 19.6207 18.7933C19.6492 17.9103 19.649 17.0314 20.1752 16.1734C20.2114 16.1137 20.9464 16.1085 20.8149 15.969C20.6126 15.9456 20.3738 15.9302 20.1571 15.9113C20.1265 14.6168 20.4596 13.3689 20.5706 12.079C20.5752 12.0253 20.1822 12.0966 20.189 11.9928C20.2283 11.3845 20.1508 10.8022 20.5654 10.1979C20.6059 10.1379 21.2868 10.208 21.192 10.0164C21.1748 9.9813 21.0958 9.70481 20.9504 9.63244C20.9285 9.62184 20.6077 9.65789 20.6022 9.57028C20.5755 9.05965 20.668 8.53237 20.8773 8.04012C20.9116 7.96077 21.2486 8.05768 21.2761 7.99886C21.4681 7.59481 21.2194 7.14062 21.5313 6.7669C21.7412 6.50713 22.3274 6.60952 22.906 6.47164C22.9876 6.45648 23.0009 6.28666 23.3371 6.28069C24.1825 6.25931 25.1082 6.34011 26.0094 6.3086C26.2035 6.29875 25.9945 6.07842 26.4635 6.20713C26.495 6.2162 26.6505 6.38138 26.8094 6.42811C26.9194 6.45871 27.2615 6.40733 27.4021 6.46595C27.5426 6.52177 27.2556 6.59744 27.4204 6.6917C27.587 6.79209 27.9765 6.75734 28.0204 6.95479ZM17.5683 58.034C17.9112 57.9288 16.7275 57.7541 16.9908 57.9497C17.005 57.9593 17.5514 58.0396 17.5683 58.034ZM15.3837 75.9002C15.9324 75.7863 15.1822 75.548 14.7599 75.6258C14.3383 75.7018 15.217 75.9373 15.3837 75.9002ZM15.4826 77.9522C15.9277 77.7792 14.2529 77.5066 14.5574 77.7993C14.5746 77.8163 15.4568 77.9622 15.4826 77.9522ZM23.0639 7.12589C23.0799 7.12328 23.0971 7.00678 23.0813 7.00467C22.7023 6.93783 22.6682 7.16844 23.0639 7.12589ZM15.6076 79.9909C15.845 79.9554 15.6141 79.7086 15.3186 79.7548C15.0805 79.795 15.3122 80.0355 15.6076 79.9909ZM19.818 50.4927C19.836 50.4926 19.8627 50.409 19.7625 50.3981C19.4398 50.3633 19.5156 50.4939 19.818 50.4927ZM15.0749 83.3368C15.2274 82.8513 16.6608 82.8019 16.4073 83.3134C16.3614 83.4057 16.0057 83.0237 15.8589 83.125C15.5913 83.3109 16.4299 83.6147 15.927 83.7605C15.8344 83.7892 15.0625 83.3657 15.0731 83.3356C15.0737 83.336 15.0743 83.3364 15.0749 83.3368ZM19.0044 58.1332C19.0205 58.1323 19.0506 58.0161 19.0354 58.0112C18.667 57.8986 18.6061 58.1328 19.0044 58.1332ZM21.178 45.5854C21.2123 45.583 21.2777 45.312 21.248 45.2992C20.6494 45.0794 20.5153 45.627 21.178 45.5854ZM18.8315 66.2296C19.1933 66.4083 19.2179 66.5656 18.7286 66.6059C18.7708 66.4811 18.7912 66.3551 18.8315 66.2296Z" fill="#FFAE00"/>
<path d="M0.86915 0.973806C1.01574 0.86666 1.22301 0.973605 1.38267 1.12307C1.43046 1.16946 1.41138 1.38197 1.44521 1.42352C1.51027 1.50454 1.5788 1.39901 1.64164 1.49584C1.6629 1.52896 1.64482 1.8653 1.667 1.89234C1.78606 2.03816 1.91812 1.94962 2.03512 2.0184C2.65987 2.35667 3.27452 2.46887 3.90359 2.60787C4.12237 2.65316 4.36269 2.95268 4.58285 2.81446C4.60814 2.79803 4.58631 2.50364 4.59065 2.47924C4.65823 2.10569 4.64489 2.70127 4.69457 2.77926C4.88778 3.08725 5.11228 3.10945 5.29187 2.9917C5.36825 2.94074 5.27757 2.35705 5.36306 2.68391C5.369 2.70599 5.35612 3.0194 5.37821 3.05232C5.42823 3.12633 5.51985 3.06835 5.5587 3.09231C5.63353 3.14006 5.64576 3.13665 5.71638 3.13867C5.8156 3.1441 5.92659 3.29733 6.02629 3.2242C6.04745 3.20767 6.01196 2.88745 6.04511 2.8321C6.07823 2.77684 6.17046 2.80205 6.20328 2.87701C6.23603 2.952 6.22827 3.20447 6.23504 3.26215C6.29084 3.74904 6.38396 3.071 6.39763 3.05398C6.64011 2.76386 6.85643 3.14429 7.09575 3.13806C7.2732 3.13259 7.45507 3.00157 7.62639 3.01535C7.83241 3.03297 8.00171 3.20332 8.19594 3.16931C8.21645 3.16609 8.18436 2.78936 8.20941 2.78466C8.47789 2.73507 8.74349 2.77063 9.01384 3.01977C9.04112 3.04508 9.01357 3.37702 9.04124 3.42211C9.21053 3.6909 9.48678 4.33933 9.5504 2.8953C9.66092 2.94935 9.79615 3.00476 9.90169 3.2934C9.96976 3.47917 9.91476 3.84129 9.9906 3.68569C10.0077 3.65102 9.97802 3.3355 10.0042 3.3074C10.115 3.18939 10.2403 3.28958 10.345 3.1241C10.3665 3.0897 10.3547 2.80667 10.3599 2.75556C10.4043 2.34155 10.5068 3.02233 10.5272 3.07154C10.6821 3.4384 10.7877 3.29064 10.9273 3.29684C10.9598 3.29844 10.9138 2.91888 10.9447 2.90676C11.1058 2.84896 11.2658 2.87843 11.426 3.04403C11.4615 3.08179 11.4361 3.4064 11.4534 3.44102C11.5296 3.58972 11.5335 2.97749 11.6067 3.10828C11.6222 3.13507 11.6193 3.41258 11.6227 3.44299C11.6748 3.92029 11.6982 3.24204 11.7089 3.22686C11.8439 3.01969 11.9467 3.7252 12.0752 3.62245C12.0907 3.60944 12.0483 3.25922 12.0922 3.24411C12.3827 3.1414 12.7106 3.23135 13.0041 3.50639C13.0503 3.54866 13.0231 3.81292 13.0266 3.84536C13.0831 4.35222 13.0999 3.67127 13.1143 3.64536C13.2278 3.45863 13.3491 4.02703 13.4136 3.21511C13.9232 3.48649 14.4058 3.02195 14.9145 3.7385C14.9209 3.74679 14.9161 4.08208 14.9288 4.09718C15.0824 4.28246 15.0437 3.76224 15.1314 3.12342C15.1534 2.96301 15.2447 3.73053 15.2525 3.78677C15.2812 3.99401 15.265 4.49301 15.2741 4.53308C15.3486 4.84765 15.3061 3.19927 15.3989 3.19698C15.4019 3.19967 15.3954 3.50335 15.4038 3.53337C15.4298 3.62764 15.4516 3.50661 15.4773 3.61061C15.5362 3.85129 15.5706 4.652 15.6451 4.18421C15.6543 4.1235 15.6217 3.18863 15.7043 3.23127C15.737 3.24906 15.8807 3.23033 15.9224 3.29017C15.964 3.34994 15.9418 3.65182 15.945 3.66481C16.0615 4.06126 16.0232 4.22718 16.089 4.81612C16.1547 5.40283 16.1134 4.00131 16.1328 3.84443C16.1522 3.688 16.2388 4.01528 16.2607 4.1292C16.2826 4.24318 16.2615 4.43513 16.2803 4.49951C16.4049 4.92009 16.3186 3.80275 16.353 3.57954C16.434 3.05103 16.5244 4.0893 16.6099 4.18962C16.6331 4.21671 16.6102 3.98028 16.63 3.95776C16.7091 3.8717 16.7607 4.19524 16.8445 3.89616C16.8582 3.84743 16.9187 3.22107 16.9739 3.6789C16.9818 3.74492 16.9677 4.00433 17.0023 4.06174C17.0539 4.14791 17.1453 4.20287 17.1978 4.11528C17.2365 4.05048 17.1829 3.62445 17.2356 3.75613C17.259 3.81493 17.2222 4.06542 17.2658 4.15506C17.3092 4.24467 17.4161 4.23174 17.4568 4.22237C17.4974 4.21281 17.4692 3.88942 17.4721 3.86754C17.4897 3.74222 17.5652 3.58465 17.5722 3.58491C17.9209 3.53901 18.2438 4.07915 18.5816 3.89239C18.6081 3.8782 18.5842 3.53706 18.5882 3.53137C18.677 3.38667 18.6212 4.29582 18.6905 4.59855C18.6689 3.9058 18.7088 4.03059 18.7721 3.95344C18.8025 3.9157 18.7808 3.6477 18.7831 3.62018C18.8215 3.21184 18.862 3.73766 18.8721 3.84519C18.9091 4.24076 18.9334 3.77216 18.9585 4.03655C18.9836 4.29897 18.9436 4.68937 19.0043 4.6833C19.0169 4.43495 18.9602 3.78755 19.0045 3.68167C19.1714 3.2812 19.5083 3.78398 19.6515 3.83431C19.7939 3.8846 19.8404 3.83801 19.9232 3.92623C20.0729 4.08575 20.0107 3.60576 20.0982 3.38403C20.1861 3.16232 20.1622 4.34641 20.1798 4.60056C20.1972 4.8546 20.2068 4.59261 20.2253 4.73211C20.2438 4.87158 20.212 5.04514 20.2508 5.09696C20.2895 5.14872 20.3853 4.69456 20.3941 4.42835C20.4128 3.86435 20.3557 3.27374 20.4599 3.4798C20.4659 3.49203 20.4525 3.80351 20.4752 3.83457C20.6505 4.06471 20.8295 4.08194 21.006 4.27515C21.0151 4.28052 21.0199 4.28605 21.0247 4.29173C21.0495 4.32134 21.0276 4.66754 21.042 4.68869C21.1909 4.91009 21.1373 4.32639 21.2189 3.67799C21.1999 4.54092 21.2446 5.06887 21.353 5.07418C21.4176 5.07768 21.4083 4.70077 21.4529 4.43526C21.4665 4.35522 21.5136 4.61416 21.5228 4.43695C21.5533 3.85768 21.5111 3.20888 21.6258 3.46764C21.6307 3.47993 21.6133 3.79701 21.6306 3.81629C21.7423 3.94256 21.7562 3.33657 21.883 3.26405C21.9824 3.20714 22.1446 3.57817 22.2573 3.63964C22.244 4.60973 22.3484 4.38883 22.3987 3.72054C22.4659 3.74885 22.5485 3.71229 22.615 3.80591C22.6381 3.83783 22.6177 4.11842 22.6202 4.14882C22.6571 4.62565 22.6989 3.97552 22.7146 3.9503C22.8878 3.70554 23.0057 4.20162 23.1826 3.72432C23.1887 3.70712 23.2176 3.03373 23.2462 3.52685C23.2478 3.56084 23.1866 3.86578 23.2603 3.89169C23.3313 3.91756 23.4656 4.2835 23.5777 3.97543C23.6032 3.90117 23.6946 3.35732 23.7279 3.78666C23.7322 3.84495 23.7162 4.03772 23.7214 4.1456C23.7376 4.48937 23.7861 3.80969 23.7955 4.38947C23.8028 4.96913 23.8593 5.40569 23.9793 5.01257C23.9833 5.00117 24.0365 4.4634 24.0695 4.47391C24.1227 4.49115 24.1893 4.6081 24.2417 4.60821C24.2669 4.60807 24.2741 4.27252 24.2789 4.26671C24.4746 4.09232 24.5757 4.40038 24.7508 4.5494C24.7785 4.57686 24.9392 4.13514 24.9591 4.50249C24.9767 4.90427 24.6918 6.52563 24.8695 6.15589C24.9286 6.00628 25.3999 3.96815 25.3017 5.05379C25.4342 4.94566 25.5261 5.04509 25.5905 5.1306C25.6618 5.21997 25.6849 5.27692 25.8656 5.17435C25.8774 5.16182 26.2789 4.73687 26.3066 4.77328C26.3388 4.82128 26.1597 5.02933 26.1631 5.06021C26.1712 5.13409 26.2357 5.1527 26.3061 5.18024C26.3705 5.20444 26.4382 5.23542 26.447 5.29503C26.4543 5.3422 26.1911 5.44341 26.1939 5.49029C26.195 5.53339 26.5562 5.43955 26.4084 5.56314C26.2957 5.65892 25.5769 5.90337 25.4996 5.95923C26.2257 5.78135 26.221 5.82315 26.4299 5.86195C26.4705 5.86977 26.7226 5.80328 26.7551 5.80478C26.8932 5.81225 26.6864 5.88095 26.8353 5.88634C26.8712 5.888 27.1231 5.84665 27.1667 5.84638C27.5482 5.84701 26.9926 6.02473 26.8946 6.04802C26.5245 6.14975 26.8569 6.13514 26.7125 6.19318C26.5677 6.24824 26.3759 6.20797 26.29 6.2617C26.112 6.37019 26.1606 6.48019 26.1532 6.57462C26.1517 6.61176 26.4911 6.57137 26.4988 6.5763C26.5888 6.65445 26.2286 6.74337 26.9084 6.77217C25.1546 6.86755 27.08 6.81721 26.7303 6.94197C26.702 6.95174 25.8721 6.97229 25.7498 6.94093C25.6276 6.90981 25.8862 6.8551 25.6952 6.81398C25.6504 6.80326 24.8712 6.76564 24.8239 6.761C24.454 6.7162 25.6933 6.66232 25.7612 6.65544C26.4945 6.58582 25.6535 6.54689 25.5947 6.53506C25.3252 6.46802 25.4939 6.3889 25.2992 6.34425C25.1733 6.31576 24.3652 6.40324 24.3875 6.37987C24.463 6.31655 25.5712 6.07174 24.5957 6.20723C24.3885 6.24089 23.524 6.44445 24.2019 6.2764C24.246 6.27081 24.8567 6.08208 24.4682 6.19349C24.4194 6.20833 24.1724 6.28569 24.152 6.29319C24.0208 6.34446 24.2177 6.28363 24.1314 6.33411C24.0454 6.38553 23.9288 6.48711 24.03 6.49049C24.0781 6.49262 24.3625 6.36281 24.5265 6.27371C24.5698 6.25057 24.6053 6.23124 24.6271 6.21969C24.9189 6.04647 24.499 6.41655 24.8429 6.1863C25.1666 5.92835 25.6577 5.53428 25.8334 5.32968C25.3401 5.78673 24.8413 6.26391 24.3621 6.74136C24.6509 6.99674 24.9531 6.85788 24.9428 6.88763C24.9441 6.89266 24.8254 7.23419 24.8267 7.24935C24.8367 7.31272 24.8893 7.05858 24.8326 7.15141C24.7894 7.22478 24.6861 7.59488 24.6348 7.68439C24.7339 6.92077 24.6131 7.16708 24.5632 7.09041C24.5444 7.06366 24.5698 6.85973 24.5607 6.79116C24.5267 6.53774 24.4806 7.21692 24.453 7.32153C24.3373 7.76859 24.4841 6.23627 24.3799 6.26503C24.3739 6.26595 24.2394 7.07794 24.2295 7.12845C24.1512 7.4564 24.244 6.8431 24.2151 6.78001C24.1617 6.66477 24.1264 6.46578 24.0359 6.70069C24.0088 6.77025 23.9237 7.2773 23.9035 6.87993C23.9009 6.8279 23.9196 6.55734 23.916 6.54122C23.8468 6.27214 23.7972 7.12292 23.7349 7.40867C23.6709 7.69428 23.6289 7.10349 23.6197 6.93338C23.5988 6.49343 23.6593 6.74754 23.6631 6.70465C23.7125 6.19422 23.6532 6.2797 23.6111 6.23457C23.6413 5.39956 23.5749 5.44697 23.567 6.19115C23.5663 6.27243 23.604 6.19605 23.6111 6.23457C23.5368 7.05186 23.4688 7.1541 23.4252 6.38591C23.4036 6.02586 23.4529 5.60866 23.3381 5.75792C23.286 5.82534 23.2845 6.4009 23.2386 6.55635C23.1354 6.91107 23.0166 6.37095 22.9174 6.4532C22.8803 6.48303 22.9083 6.79869 22.8827 6.82993C22.8156 6.91385 22.7588 6.67631 22.6904 6.79605C22.6843 6.8073 22.6923 7.13716 22.672 7.14097C22.5178 7.17632 22.3801 6.96308 22.2156 6.95528C22.1327 6.95161 21.9906 7.13206 21.9071 7.09489C21.7592 7.03231 21.5892 6.55212 21.4603 6.6682C21.3768 6.7425 21.3945 7.07228 21.3599 7.29684C21.2941 7.73215 21.1766 6.95204 21.1601 6.83126C21.1597 6.82726 21.2299 6.74958 21.1926 6.5803C21.171 6.22762 21.1609 6.82973 21.1601 6.83126C21.152 6.7707 21.0648 6.71205 21.012 6.71832L21.048 6.718C21.0329 6.72006 21.0208 6.72747 21.0146 6.74169C20.9997 6.7764 21.0138 7.08859 21.0059 7.10078C20.8183 7.38361 20.628 7.4663 20.4325 7.32362C20.429 7.31737 20.428 6.96791 20.4199 6.95757C20.3055 6.80417 20.2416 7.23281 20.1544 7.48815C20.0672 7.74339 19.9937 7.6597 19.9286 7.06089C19.8595 7.13764 19.7542 6.87425 19.6935 6.71438C19.6328 6.55451 19.6368 7.23473 19.632 7.24826C19.4812 7.68137 19.3831 7.29372 19.2189 7.23603C19.1409 7.20744 18.9894 7.30881 18.9075 7.38466C18.8434 7.44574 18.7985 7.28711 18.7388 7.39012C18.7307 7.40388 18.7445 7.70653 18.7422 7.71824C18.6796 8.08176 18.6996 7.34091 18.6829 7.20896C18.6227 6.72912 18.5862 6.47363 18.5022 6.70138C18.4828 6.75354 18.4429 7.82046 18.4071 7.88346C18.3606 7.96341 18.3718 7.58104 18.3233 7.67448C18.3191 7.68213 18.3243 7.91781 18.2931 7.90798C18.1488 7.86543 17.9905 7.7311 17.8433 7.75741C17.8232 7.7601 17.8558 8.13347 17.8268 8.14351C17.6883 8.19036 17.5349 8.17932 17.3967 8.00681C17.3627 7.96317 17.3787 7.70103 17.3701 7.62344C17.3171 7.154 17.267 7.83842 17.2569 7.85163C17.0153 8.18453 16.8224 7.56953 16.5713 7.86869C16.5577 7.88623 16.4653 8.62068 16.4065 7.99336C16.4025 7.95162 16.3439 7.30977 16.3109 7.74998C16.3089 7.77752 16.344 8.10786 16.2928 8.07508C16.2415 8.04237 16.1644 8.26485 16.0884 7.9026C16.0644 7.78849 16.0006 7.14832 15.9451 7.66062C15.9415 7.69637 15.8628 8.85386 15.8121 8.05722C15.8036 7.92609 15.7949 7.08223 15.7241 7.51631C15.7105 7.60046 15.7415 7.78814 15.7038 7.90641C15.6461 8.08868 15.561 7.86422 15.4934 8.24149C15.4816 8.30828 15.437 8.882 15.3844 8.44818C15.3762 8.38023 15.3841 8.09831 15.36 8.06723C15.2458 7.91812 15.1333 8.10875 15.0177 7.91599C14.9767 7.84826 14.9883 7.39251 14.9447 7.27127C14.901 7.15007 14.8158 7.03431 14.7768 7.24322C14.7373 7.45223 14.799 8.17706 14.734 8.2364C14.4514 8.49413 14.162 8.07381 13.881 8.01696C13.8392 8.00847 13.8792 8.26749 13.8174 8.27362C13.5854 8.29745 13.1958 8.54865 12.9898 8.00068C12.8245 7.5618 13.0149 7.22144 12.8918 7.04394C12.8314 6.9593 12.7833 7.80432 12.7697 7.83116C12.6354 8.10375 12.5316 7.7319 12.4096 7.84904C12.3845 7.87334 12.4164 8.21482 12.3949 8.23173C12.3216 8.29252 12.2407 8.14142 12.1707 8.17075C12.1393 8.1847 12.1503 8.44577 12.1209 8.42619C12.0505 8.38235 11.9869 8.27378 11.9118 8.03039C11.9051 8.00821 11.9413 7.68244 11.8883 7.67141C11.8025 7.65449 11.6921 7.41511 11.5999 7.66646C11.5726 7.74206 11.5834 8.33902 11.5133 7.92801C11.4987 7.84217 11.5007 7.12505 11.4414 7.74584C11.4313 7.849 11.3279 8.68681 11.2584 8.14951C11.2401 8.0081 11.1887 7.42235 11.1565 7.51522C11.1522 7.53002 11.1772 7.85028 11.1496 7.88213C11.0503 7.98883 10.9413 7.95682 10.8391 8.05937C10.8118 8.08738 10.8601 8.41834 10.8192 8.4495C10.7067 8.53569 10.5636 8.45409 10.4516 8.35249C10.4103 8.3144 10.4327 8.03898 10.4291 8.00913C10.3718 7.5236 10.3574 8.18083 10.3425 8.21944C10.2499 8.45071 10.1646 8.14388 10.0748 8.22739C10.0498 8.24961 10.0743 8.56234 10.0698 8.59036C10.023 8.86422 10.0505 8.30113 10.0161 8.23983C9.91971 8.06624 9.81755 8.09353 9.72591 8.13545C9.69227 8.15131 9.73794 8.51357 9.70768 8.5236C9.53131 8.58984 9.33699 8.55913 9.15497 8.3627C9.12068 8.32505 9.13591 8.04505 9.1276 7.98135C9.07013 7.53563 9.01275 8.14643 8.99789 8.20481C8.93027 8.47137 8.89681 8.22474 8.83365 8.27223C8.52012 8.50865 8.12699 8.35315 7.82315 8.25842C7.427 8.13662 7.12 7.87714 6.74938 7.95424C6.72608 7.95878 6.75769 8.33016 6.73773 8.33886C6.48351 8.43404 6.2069 8.29467 5.95465 8.40765C5.9336 8.41627 5.97224 8.76815 5.93818 8.79384C5.86601 8.84907 5.77372 8.83192 5.69876 8.72094C5.66222 8.66748 5.70299 8.36392 5.66636 8.31628C5.5811 8.20468 5.49287 8.1815 5.41116 8.23984C5.37643 8.26544 5.43756 8.62484 5.39184 8.63001C5.06746 8.67294 4.76508 8.74177 4.42613 8.28217C4.40347 8.25059 4.36783 7.5182 4.32473 7.65977C4.32578 7.86322 4.33131 8.10245 4.33464 8.31986C3.86794 8.44743 3.41291 8.20349 2.9395 8.17486C2.92017 8.17372 2.96223 8.56126 2.92491 8.56103C2.70466 8.56025 2.50217 8.67245 2.25771 8.29182C2.23453 8.25458 2.23016 7.57125 2.16757 7.67602C2.15529 7.69516 2.06576 7.78831 2.03969 7.93726C2.03653 7.95971 2.06272 8.27812 2.02929 8.28816C1.83986 8.34085 1.64221 8.27244 1.45696 8.08159C1.4242 8.05024 1.45085 7.70995 1.42757 7.68468C1.26696 7.50785 1.11681 7.76933 0.954144 7.46409C0.859389 7.25823 0.875239 6.67076 0.812016 6.09391C0.801959 6.01256 0.746234 6.00049 0.731526 5.6644C0.712903 4.81912 0.733423 3.89303 0.708223 2.99213C0.685719 2.79828 0.68944 3.00733 0.682934 2.53828C0.673688 2.50702 0.722612 2.35072 0.728982 2.19144C0.735187 2.08131 0.715247 1.73966 0.729339 1.59859C0.742102 1.45766 0.775911 1.74374 0.801145 1.57777C0.827379 1.40974 0.803955 1.02115 0.86915 0.973806ZM19.4211 5.99984C19.362 5.67418 19.3754 6.87051 19.4279 6.5833C19.4304 6.568 19.4241 6.01581 19.4211 5.99984ZM25.2751 6.0174C25.4767 5.52959 25.1725 6.2435 25.0196 6.62127C24.8387 6.98681 25.1994 6.15858 25.2751 6.0174ZM25.5011 5.75175C25.8544 5.52576 24.3523 6.31699 24.648 6.14047C24.6646 6.13025 25.4798 5.76326 25.5011 5.75175ZM1.05324 5.92469C1.05156 5.90883 1.01351 5.89413 1.01065 5.90993C0.99663 6.29027 1.07875 6.31929 1.05324 5.92469ZM26.0263 6.14141C26.2509 6.08757 25.9789 6.06008 25.7008 6.12986C25.4766 6.18178 25.7466 6.20379 26.0263 6.14141ZM16.623 4.77346C16.6218 4.75565 16.5903 4.74017 16.5928 4.84092C16.601 5.1654 16.6427 5.07301 16.623 4.77346ZM26.0945 7.2987C26.1583 7.12225 27.5589 7.00137 27.4015 7.20342C27.373 7.23945 26.9544 7.12698 26.8282 7.17316C26.5983 7.25653 27.4782 7.31133 27.0067 7.3959C26.9204 7.41112 26.0878 7.30877 26.0926 7.29838C26.0932 7.29849 26.0939 7.29859 26.0945 7.2987ZM19.365 4.5636C19.3636 4.5478 19.3206 4.53356 19.3199 4.54926C19.3035 4.92942 19.3901 4.95834 19.365 4.5636ZM14.8074 4.06775C14.8044 4.03409 14.7059 4.00444 14.7033 4.03555C14.6641 4.65752 14.8633 4.71931 14.8074 4.06775ZM22.2587 3.66553C22.3107 3.28402 22.3682 3.23977 22.3985 3.72005C22.3528 3.69395 22.3059 3.6896 22.2587 3.66553Z" fill="#FFAE00"/>
<path d="M10.2442 106.026C10.2576 105.926 10.5111 106.091 10.7116 106.27C10.7765 106.327 10.714 106.532 10.759 106.581C10.8494 106.675 10.9583 106.583 11.0554 106.691C11.0869 106.728 11.0095 107.058 11.0442 107.089C11.2404 107.258 11.4528 107.189 11.671 107.274C12.7107 107.676 13.826 107.802 14.97 107.89C14.961 107.897 14.947 107.905 14.9243 107.915C14.8535 107.95 14.6231 108.091 14.4194 108.379C14.2118 108.671 14.1886 108.954 14.1128 109.069C14.0943 109.098 13.8019 109.058 13.7771 109.063C13.3997 109.18 13.9981 109.152 14.0785 109.187C14.2753 109.273 14.3408 109.217 14.4284 109.337C14.4741 109.386 14.5015 109.442 14.4974 109.497C14.4907 109.553 14.1454 110.027 14.3571 109.771C14.3689 109.753 14.5272 109.482 14.5447 109.454C14.5836 109.389 14.5204 109.42 14.5034 109.388C14.4697 109.324 14.4545 109.322 14.3846 109.3C14.2891 109.267 14.1545 109.083 13.9772 109.131C13.94 109.142 13.9434 109.466 13.8821 109.514C13.879 109.516 13.8757 109.518 13.8722 109.52C13.8028 109.555 13.7062 109.517 13.6867 109.444C13.6633 109.367 13.689 109.116 13.6867 109.058C13.644 108.566 13.5547 109.245 13.5785 109.262C13.5629 109.411 13.7027 109.354 13.7259 109.261C13.7583 109.167 13.6743 109.093 13.6324 109.156C13.6179 109.177 13.6067 109.209 13.5968 109.25C13.5169 109.465 13.4804 109.7 13.3851 109.885C13.236 110.172 12.9759 110.38 12.912 110.704C12.9052 110.738 13.2786 110.805 13.2715 110.844C13.1977 111.265 13.0808 111.653 12.7843 112.06C12.7543 112.102 12.4301 112.013 12.3803 112.053C12.0794 112.288 11.4166 112.811 12.8668 112.927C12.8152 113.102 12.7725 113.31 12.5036 113.503C12.331 113.63 11.9594 113.575 12.1307 113.688C12.169 113.713 12.4761 113.629 12.5097 113.667C12.65 113.824 12.5886 114.031 12.788 114.139C12.8292 114.161 13.0993 114.075 13.1506 114.069C13.5628 114.01 12.9427 114.307 12.9074 114.354C12.7199 114.548 12.7458 114.653 12.7914 114.709C12.7697 114.658 12.7511 114.613 12.731 114.598C12.7167 114.588 12.9971 114.329 12.9829 114.301C12.8906 114.16 12.9634 114.27 13.0977 114.477C13.1283 114.525 13.0037 114.827 13.016 114.866C13.0839 115.04 13.2463 114.449 13.3134 114.598C13.3292 114.628 13.2636 114.898 13.2617 114.929C13.2395 115.412 13.4229 114.756 13.4387 114.743C13.6756 114.574 13.7443 115.294 13.9992 115.213C14.0284 115.203 13.9916 114.848 14.0701 114.839C14.2863 114.814 14.5087 114.815 14.7363 114.841C14.9787 114.877 15.1339 114.953 15.3089 115.056C15.3572 115.081 15.4493 115.329 15.4632 115.358C15.7411 115.789 15.4611 115.164 15.4485 115.142C15.4041 114.961 15.9036 115.269 15.3532 114.666C15.4287 114.646 15.5036 114.588 15.5726 114.507C15.9998 113.979 16.0002 113.314 16.7349 112.699C16.7452 112.689 17.0714 112.769 17.0906 112.748C17.3242 112.496 16.8005 112.46 16.1912 112.211C16.0376 112.153 16.8164 112.104 16.8739 112.094C17.0852 112.068 17.5766 112.165 17.6182 112.153C17.9458 112.043 16.3018 111.921 16.3122 111.765C16.3153 111.76 16.6167 111.802 16.6477 111.79C16.7452 111.753 16.6273 111.703 16.7339 111.665C16.98 111.582 17.783 111.568 17.3209 111.393C17.2606 111.372 16.3257 111.38 16.3714 111.236C16.3911 111.178 16.3721 110.919 16.4295 110.844C16.4875 110.768 16.7904 110.808 16.8033 110.803C17.1935 110.58 17.3614 110.651 17.9451 110.509C18.5254 110.361 17.1276 110.476 16.9688 110.444C16.8106 110.413 17.1271 110.236 17.2374 110.187C17.348 110.138 17.543 110.171 17.6045 110.13C18.0043 109.856 16.9023 110.093 16.6739 110.042C16.1404 109.933 17.1236 109.692 17.2255 109.511C17.2269 109.509 17.2282 109.507 17.2292 109.504C17.2507 109.459 17.0209 109.525 16.9939 109.493C16.8902 109.373 17.1922 109.221 16.8658 109.13C16.8114 109.109 16.1796 109.159 16.5992 108.961C16.6594 108.931 16.918 108.892 16.9561 108.816C17.014 108.704 17.0119 108.521 16.8944 108.458C16.8081 108.412 16.44 108.643 16.5315 108.513C16.5716 108.454 16.8318 108.432 16.8864 108.326C16.9415 108.219 16.8474 108.035 16.805 107.97C16.763 107.904 16.4915 108.086 16.4691 108.09C16.3411 108.112 16.1409 108.065 16.1356 108.056C15.8305 107.569 15.9029 106.759 15.324 106.404C15.2797 106.377 15.0542 106.635 15.0449 106.634C14.8273 106.613 15.5757 106.081 15.7057 105.779C15.222 106.276 15.2619 106.136 15.1212 106.104C15.0532 106.089 14.8883 106.303 14.8652 106.319C14.5213 106.553 14.8454 106.135 14.9071 106.045C15.1369 105.717 14.7706 106.015 14.9216 105.794C15.0691 105.573 15.4036 105.351 15.3074 105.27C15.1158 105.431 14.7447 105.97 14.609 105.989C14.1093 106.067 13.9592 105.299 13.7598 105.093C13.5706 104.891 13.4711 104.88 13.3889 104.716C13.2369 104.422 13.0618 104.883 12.7979 104.975C12.5359 105.071 13.2306 104.11 13.3431 103.88C13.3437 103.879 13.3442 103.878 13.3448 103.877C13.4516 103.651 13.2914 103.856 13.3339 103.72C13.3744 103.581 13.5301 103.472 13.482 103.383C13.4285 103.29 13.011 103.583 12.8764 103.815C12.5835 104.3 12.4002 104.866 12.3468 104.613C12.3429 104.598 12.4974 104.326 12.4755 104.282C12.29 103.94 11.9672 103.825 11.676 103.556C11.6349 103.518 11.7395 103.186 11.7148 103.16C11.4476 102.89 11.4575 103.485 11.2376 104.11C11.3739 103.258 11.3465 102.719 11.0961 102.695C10.949 102.682 10.9523 103.061 10.8542 103.322C10.8261 103.401 10.7379 103.14 10.7164 103.317C10.6512 103.895 10.7241 104.543 10.5272 104.285C10.5181 104.273 10.5446 103.956 10.5126 103.937C10.3007 103.815 10.2969 104.421 10.0952 104.508C9.93888 104.576 9.598 104.242 9.38433 104.214C9.24812 103.253 9.06913 103.506 9.10845 104.179C9.10825 104.179 9.10805 104.179 9.10785 104.179L9.63446 103.844C9.53427 103.94 9.48182 104.083 9.3319 104.141C9.28034 104.162 9.06311 103.981 9.03466 103.969C8.58764 103.782 9.09714 104.192 9.10268 104.23C9.13632 104.633 8.57616 104.601 8.83223 105.115C8.84141 105.133 9.41347 105.49 8.94811 105.311C8.91597 105.298 8.70297 105.055 8.60908 105.169C8.51598 105.281 8.06313 105.347 8.23949 105.677C8.28142 105.757 8.70533 106.123 8.28203 106.009C8.22456 105.993 8.06062 105.89 7.95655 105.857C7.62401 105.752 8.21151 106.099 7.66437 105.896C7.11737 105.694 6.65642 105.641 6.91749 106.013C6.92473 106.024 7.38583 106.309 7.34943 106.364C7.29054 106.451 7.12389 106.538 7.08012 106.638C7.05929 106.687 7.37676 106.8 7.37841 106.811C7.39972 107.206 7.0266 107.306 6.75843 107.604C6.70767 107.661 7.05472 108.015 6.66995 108.003C6.24776 107.993 4.7773 107.234 5.00915 107.717C5.09989 107.917 6.99496 108.807 5.89593 108.667C5.98749 109.208 5.32074 109.474 5.56252 110.054C5.57297 110.08 6.11977 110.293 6.10054 110.337C6.07077 110.402 5.79615 110.379 5.76629 110.428C5.63512 110.627 5.82181 110.877 5.75366 111.076C5.72843 111.154 5.45386 111.084 5.42471 111.18C5.3958 111.284 5.75736 111.381 5.56907 111.497C5.42694 111.579 4.66191 111.663 4.58012 111.865C4.86616 111.857 5.04103 111.868 5.15985 111.891C5.15956 111.894 5.1615 111.905 5.16138 111.909C5.35428 111.931 5.40302 112.001 5.53684 112.086C5.57887 112.112 5.83256 112.045 5.86573 112.055C6.00617 112.094 5.80014 112.178 5.95282 112.211C5.98948 112.218 6.24196 112.18 6.28611 112.184C6.67015 112.209 6.12943 112.445 6.03724 112.493C5.68389 112.665 6.01963 112.647 5.89036 112.753C5.76242 112.864 5.55304 112.788 5.48632 112.902C5.34902 113.141 5.46137 113.388 5.51396 113.585C5.53681 113.665 5.84289 113.505 5.85369 113.514C5.9853 113.638 5.70437 113.924 6.37052 113.765C4.77281 114.5 6.56315 113.795 6.3216 114.131C6.302 114.158 5.54612 114.503 5.40473 114.48C5.26293 114.456 5.46117 114.253 5.24676 114.225C5.19667 114.219 4.41577 114.352 4.36335 114.345C3.9585 114.308 5.1242 113.88 5.1862 113.851C5.85296 113.53 5.00583 113.632 4.93514 113.597C4.61694 113.463 4.73644 113.232 4.50979 113.092C4.36332 113 3.56572 113.155 3.56806 113.043C3.57802 112.661 4.68646 112.399 3.67297 112.221C3.48977 112.186 2.83176 112.302 3.04439 112.141C3.04517 112.116 3.03172 112.04 3.0338 112.015C3.07216 111.971 3.13905 111.917 3.24318 111.855C3.28497 111.813 3.92346 111.579 3.52909 111.432C3.47915 111.413 3.22072 111.398 3.20043 111.374C3.07018 111.212 3.28517 111.131 3.20463 110.973C3.12493 110.809 3.00612 110.612 3.12031 110.471C3.18881 110.385 3.68549 110.359 3.80888 110.345C4.16456 110.302 3.64741 110.059 4.06463 110.083C4.48321 110.111 5.06631 110.377 5.3652 110.276C4.71288 110.113 4.04566 109.935 3.39145 109.763C3.51578 109.355 3.83527 109.038 3.92776 108.655C3.9389 108.606 3.57933 108.543 3.58259 108.488C3.59778 108.257 3.90454 108.157 3.88556 107.906C3.86841 107.715 3.57891 107.396 3.5566 107.186C4.31575 107.355 4.17074 107.012 4.31177 106.855C4.36047 106.801 4.54853 106.884 4.62903 106.866C4.92832 106.793 4.26883 106.608 4.19019 106.519C3.8564 106.138 5.27729 106.729 5.3413 106.491C5.34462 106.48 4.66347 105.994 4.62717 105.951C4.38446 105.681 4.8969 106.048 4.98929 105.992C5.15832 105.89 5.38298 105.872 5.24859 105.597C5.20805 105.517 4.80843 105.169 5.21159 105.246C5.26436 105.257 5.50388 105.384 5.52316 105.381C5.85151 105.315 5.0932 104.928 4.89143 104.688C4.69029 104.447 5.30029 104.55 5.46714 104.597C5.90067 104.715 5.59812 104.75 5.63374 104.775C6.05909 105.067 6.04205 104.909 6.12749 104.841C6.8721 105.22 6.89196 105.077 6.2132 104.769C6.13883 104.735 6.1706 104.841 6.12749 104.841C5.44456 104.379 5.4317 104.181 6.1858 104.4C6.539 104.504 6.86766 104.773 6.85106 104.49C6.84439 104.362 6.32349 104.114 6.23648 103.95C6.03983 103.573 6.65331 103.591 6.70256 103.351C6.72102 103.263 6.40955 103.168 6.41334 103.101C6.42339 102.923 6.69698 102.932 6.6803 102.735C6.67857 102.717 6.38266 102.567 6.40619 102.523C6.52931 102.284 6.74732 102.136 6.94647 101.959C7.28046 101.602 8.05338 100.961 8.54216 100.945C8.65861 100.95 8.77719 100.95 8.90018 100.934C9.10058 100.905 9.45322 100.68 9.68233 100.698C10.0811 100.725 10.5696 101.192 10.9058 101.09C11.1308 101.024 11.1007 100.694 11.2171 100.476C11.4547 100.053 11.7426 100.872 11.7623 100.998C11.7622 101.002 11.554 101.054 11.6387 101.235C11.6534 101.592 11.7589 100.999 11.7623 100.998C11.7829 101.077 12.1685 101.217 12.2613 101.175C12.3119 101.15 12.3516 100.839 12.3777 100.832C13.0008 100.677 13.6655 100.811 14.1789 101.229C14.1861 101.239 14.0166 101.545 14.0346 101.566C14.2084 101.776 14.4525 101.704 14.7336 101.635C14.8281 101.594 14.926 101.552 15.0205 101.525C15.3468 101.431 15.4576 101.607 15.229 102.177C15.4102 102.208 15.4547 102.564 15.4687 102.774C15.482 102.983 15.9025 102.448 15.9208 102.445C16.4907 102.335 16.4367 102.788 16.705 103.095C16.8332 103.242 17.1869 103.428 17.3951 103.526C17.5609 103.603 17.5221 103.789 17.7062 103.831C17.7311 103.837 17.9326 103.61 17.9456 103.607C18.3346 103.487 17.7392 103.937 17.6692 104.055C17.4129 104.484 17.2734 104.708 17.5878 104.72C17.6578 104.721 18.5648 104.139 18.6819 104.182C18.8293 104.235 18.5024 104.439 18.6618 104.488C18.6752 104.493 18.857 104.342 18.904 104.418C19.1248 104.767 19.2751 105.214 19.5258 105.577C19.5596 105.627 19.8371 105.364 19.8924 105.437C20.1516 105.777 20.3681 106.222 20.379 106.691C20.3805 106.806 20.1132 106.847 20.0506 106.899C19.6692 107.202 20.3721 107.125 20.3976 107.157C20.9043 107.711 20.6462 108.384 20.8 109.027C20.8215 109.107 20.8554 109.188 20.9071 109.271C20.9283 109.299 21.6873 109.492 21.073 109.675C21.0324 109.688 20.403 109.86 20.8492 109.926C20.8772 109.93 21.2011 109.828 21.1778 109.961C21.1545 110.092 21.3892 110.293 21.0339 110.491C20.9221 110.555 20.2869 110.704 20.8014 110.858C20.8377 110.862 21.9972 111.126 21.1987 111.226C21.0671 111.241 20.2244 111.218 20.6539 111.424C20.737 111.465 20.9267 111.397 21.0419 111.504C21.2193 111.671 20.985 111.874 21.3464 112.102C21.4107 112.139 21.9705 112.343 21.5257 112.433C21.4561 112.446 21.1789 112.384 21.1415 112.446C20.9626 112.736 21.1069 113.086 20.8593 113.372C20.7722 113.471 20.3341 113.335 20.1935 113.423C20.0531 113.511 19.8929 113.702 20.0678 113.865C20.2421 114.031 20.9807 114.067 20.99 114.271C21.0214 115.177 20.2955 115.895 19.8004 116.641C19.7252 116.754 20.008 116.785 19.9082 116.964C19.8718 117.029 19.8337 117.099 19.7932 117.173C19.5815 117.551 19.2333 118.14 18.5958 118.657C17.9685 119.179 17.1246 119.468 16.5986 119.365C15.7062 119.157 16.5473 118.579 15.9736 118.544C15.7309 118.515 15.6052 119.382 15.5376 119.417C15.2123 119.613 14.944 119.56 14.7111 119.503C14.5932 119.462 14.4753 119.423 14.3406 119.467C14.2747 119.489 14.3289 119.833 14.2716 119.848C14.0729 119.901 13.8707 119.737 13.6747 119.751C13.5861 119.758 13.5816 120.019 13.5003 119.992C13.3052 119.93 13.1336 119.801 12.9657 119.532C12.9514 119.507 13.1136 119.201 12.9679 119.169C12.727 119.117 12.4758 118.83 12.1087 118.998C11.9993 119.048 11.8426 119.626 11.7315 119.166C11.7061 119.068 11.9797 118.406 11.5387 118.915C11.4872 119.01 10.6651 119.603 10.5895 118.957C10.573 118.79 10.6785 118.184 10.4773 118.165C10.4462 118.163 10.369 118.494 10.2098 118.429C9.73526 118.222 9.18146 117.763 8.69931 117.028C8.65333 116.967 8.60703 116.908 8.55922 116.849C8.4772 116.749 8.26757 117.07 8.15399 116.911C7.84341 116.474 7.74582 115.923 7.74578 115.526C7.74575 115.377 8.03739 115.402 8.06337 115.384C8.4941 115.111 7.83761 115.186 7.78726 115.139C7.49062 114.871 7.75133 114.573 7.63133 114.313C7.59899 114.239 7.2965 114.337 7.26667 114.325C6.9742 114.198 7.54781 114.245 7.59651 114.137C7.73553 113.836 7.6864 113.548 7.63381 113.276C7.61428 113.178 7.25635 113.306 7.24313 113.216C7.15835 112.675 7.21119 112.108 7.45731 111.621C7.50434 111.53 7.77713 111.616 7.84255 111.603C8.2992 111.517 7.71609 111.26 7.66488 111.205C7.42899 110.963 7.68613 110.916 7.6699 110.728C7.58386 109.798 8.06178 108.738 8.48599 108C8.73275 107.56 9.00918 107.195 9.28249 106.849C9.73614 106.227 10.4122 105.34 11.7094 104.731C11.8561 104.665 11.5614 104.384 11.6944 104.321C13.0188 103.749 14.0688 103.977 14.5693 104.026C14.7749 104.051 15.0019 104.074 15.2627 104.094C15.3402 104.102 15.2974 103.733 15.4296 103.735C15.7012 103.736 16.0806 103.852 16.383 104.081C16.528 104.191 16.2079 104.396 16.3507 104.501C16.6793 104.746 17.0967 104.969 17.5764 105.246C17.784 105.369 17.7005 104.855 17.9665 105.052C18.3849 105.367 18.8038 105.793 19.1255 106.283C19.7171 107.22 19.8927 107.965 19.9021 108.883C19.8955 109.765 19.6024 110.939 18.6666 111.864C18.4935 112.03 17.8389 111.684 17.6445 112.039C17.7533 112.214 17.9079 112.397 18.0357 112.573C17.0165 113.451 15.9607 113.619 15.2579 113.647C14.5132 113.653 13.7727 113.53 13.0188 113.496C12.9748 113.494 13.0481 113.883 12.9623 113.882C12.4668 113.871 11.9648 113.964 11.4661 113.55C11.417 113.509 11.483 112.829 11.3268 112.923C11.2996 112.94 11.0681 113.016 10.9971 113.159C10.9873 113.181 11.0056 113.502 10.9305 113.506C10.493 113.521 10.0275 113.401 9.58326 113.138C9.51169 113.095 9.64257 112.772 9.59314 112.738C9.24979 112.502 8.77152 112.683 8.34622 112.233C8.0493 111.917 8.37015 111.404 8.41498 110.799C8.43308 110.723 8.19547 110.586 8.35739 110.284C8.81898 109.575 9.29559 108.782 9.76342 108.012C9.82031 107.934 9.8811 107.968 10.0277 108.048C10.1622 108.125 10.3079 108.171 10.2283 107.786C10.2188 107.756 10.1182 107.62 10.0681 107.519C10.0138 107.413 10.0028 107.322 10.0149 107.239C10.0343 107.127 10.232 106.842 10.2291 106.685C10.2217 106.528 10.0734 106.778 10.102 106.613C10.1366 106.448 10.2494 106.076 10.2442 106.026ZM15.5106 103.708C15.4001 104.038 16.165 103.118 15.8792 103.256C15.8645 103.264 15.5157 103.692 15.5106 103.708ZM4.70151 109.305C5.25053 109.311 4.54011 108.985 4.11877 108.967C3.69606 108.956 4.53447 109.305 4.70151 109.305ZM4.70841 110.963C5.14743 110.85 3.4826 110.52 3.78411 110.805C3.80117 110.822 4.68287 110.97 4.70841 110.963ZM9.10802 110.848C9.10938 110.832 9.01008 110.792 9.00413 110.806C8.85007 111.159 9.0627 111.244 9.10802 110.848ZM5.17257 112.62C5.38785 112.526 5.10096 112.417 4.83089 112.532C4.61386 112.628 4.90525 112.743 5.17257 112.62ZM17.8072 109.42C17.8027 109.422 17.7989 109.427 17.7974 109.434C17.7931 109.453 17.808 109.486 17.882 109.475C18.0665 109.449 18.1112 109.411 18.0603 109.398C18.0224 109.387 17.932 109.39 17.8072 109.42ZM6.03725 115.053C5.92874 114.677 7.13054 113.924 7.13908 114.326C7.14215 114.4 6.67119 114.378 6.59335 114.511C6.45486 114.76 7.29408 114.475 6.94375 114.831C6.88042 114.898 6.04176 115.079 6.0352 115.053C6.03588 115.053 6.03656 115.053 6.03725 115.053ZM14.6675 104.874C14.6594 104.888 14.7176 104.954 14.7291 104.943C15.0062 104.679 14.8847 104.541 14.6675 104.874ZM17.0156 112.968C16.9822 112.966 16.911 113.14 16.9393 113.153C17.5202 113.4 17.6742 113.015 17.0156 112.968ZM9.37734 104.189C9.34749 104.58 9.26136 104.64 9.10893 104.179C9.19997 104.189 9.28746 104.179 9.37734 104.189Z" fill="#FFAE00"/>
</svg>
