<svg width="222" height="14" viewBox="0 0 222 14" fill="none" xmlns="http://www.w3.org/2000/svg">
<path d="M2.06181 7.06084C3.28753 6.82176 4.92228 6.75517 6.17342 6.77291C6.56556 6.77796 6.39306 7.01001 6.66406 7.02308C7.19417 7.04839 7.66917 6.89225 8.1963 6.93397C8.37112 6.94883 8.19415 7.30581 8.37663 7.31375C9.37523 7.355 10.2953 7.16983 11.2989 7.13414C16.2383 6.95937 21.0833 6.58305 26.0636 6.25074C27.712 6.14008 29.727 6.25389 31.4131 5.96331C31.6104 5.92903 31.4646 5.64652 31.5002 5.61881C32.0583 5.19344 31.9139 5.80454 32.3057 5.84776C33.8636 6.01747 35.5633 5.89164 37.0297 5.64857C37.6488 5.54476 36.972 5.01629 37.6297 5.28865C37.6754 5.30695 37.5439 5.63268 37.7183 5.65097C38.1133 5.69179 38.8504 5.57183 39.1573 5.57041C39.7409 5.56987 39.8351 5.55868 40.3852 5.51553C41.1382 5.45926 42.0518 5.53893 42.8478 5.40212C43.0186 5.37191 42.7642 5.07087 43.0345 4.99381C43.3047 4.9168 44.0382 4.88419 44.2924 4.93954C44.5448 4.99501 44.4595 5.25499 44.5077 5.30909C44.9005 5.76678 45.6862 5.02581 45.7939 5.00053C47.7553 4.55863 49.4803 4.81213 51.3265 4.67325C52.7499 4.56543 54.2244 4.33111 55.5777 4.25301C57.1644 4.16306 58.5423 4.24289 60.0865 4.10989C60.2506 4.09617 60.033 3.7325 60.2335 3.71498C62.3588 3.52963 64.4675 3.43647 66.6038 3.56111C66.8191 3.57389 66.5638 3.92138 66.7801 3.95393C68.0896 4.14639 70.1919 4.67788 70.8724 3.19421C71.7477 3.20011 72.8247 3.19756 73.6339 3.44391C74.1466 3.60293 73.678 3.99028 74.2878 3.80241C74.4256 3.76047 74.2265 3.45487 74.4346 3.41584C75.3083 3.25197 76.2988 3.30153 77.1641 3.09232C77.3394 3.04906 77.2761 2.7688 77.3237 2.71522C77.7236 2.28051 78.4664 2.92553 78.6237 2.9671C79.8241 3.2755 80.6729 3.08687 81.7638 3.04184C82.0179 3.03153 81.6988 2.66643 81.9428 2.64287C82.4861 2.59262 83.0416 2.55817 83.6004 2.54383C84.3276 2.52553 85.06 2.54287 85.7754 2.60593C86.0542 2.63143 85.8145 2.967 85.9486 2.99575C86.5393 3.11863 86.6436 2.50114 87.2098 2.60756C87.3277 2.62929 87.2747 2.90941 87.2973 2.93887C87.6521 3.40139 87.9117 2.7113 87.9971 2.69246C89.0758 2.4391 89.8118 3.1146 90.8673 2.96833C90.9921 2.9502 90.694 2.61182 91.046 2.58228C93.3991 2.38313 95.9066 2.37617 98.2679 2.56412C98.6317 2.593 98.3836 2.86665 98.4076 2.89823C98.799 3.3911 99.0133 2.70174 99.1307 2.67152C100.058 2.45076 100.956 2.98754 101.566 2.15346C105.537 2.28494 109.473 1.69212 113.434 2.28995C113.484 2.29674 113.405 2.6346 113.505 2.6467C114.711 2.796 114.464 2.2829 115.238 1.62086C115.434 1.4546 116.068 2.20412 116.123 2.25879C116.326 2.46027 116.138 2.96501 116.205 3.00316C116.759 3.30191 116.62 1.65651 117.354 1.63326C117.378 1.6353 117.291 1.94163 117.353 1.96989C117.547 2.05868 117.733 1.9323 117.923 2.03099C118.359 2.25951 118.536 3.05567 119.176 2.5698C119.258 2.50682 119.103 1.57568 119.76 1.60018C120.022 1.61069 121.18 1.56035 121.505 1.61155C121.83 1.66261 121.617 1.97038 121.64 1.98275C122.524 2.35574 122.198 2.5305 122.652 3.10769C123.106 3.68271 122.944 2.28473 123.118 2.1232C123.292 1.96208 123.941 2.27259 124.101 2.38244C124.262 2.49232 124.071 2.6893 124.213 2.75004C125.151 3.14664 124.6 2.04295 124.899 1.81195C125.604 1.26514 126.193 2.28906 126.855 2.37296C127.034 2.39562 126.882 2.16285 127.04 2.1364C127.666 2.0348 128.053 2.34895 128.76 2.03261C128.875 1.98104 129.438 1.34083 129.824 1.78968C129.879 1.85443 129.735 2.11737 130.004 2.1684C130.407 2.24502 131.13 2.28305 131.557 2.18554C131.873 2.11341 131.498 1.69584 131.901 1.81828C132.08 1.87299 131.758 2.13101 132.093 2.21296C132.427 2.29492 133.276 2.2627 133.6 2.24612C133.922 2.22934 133.737 1.90994 133.763 1.88748C133.918 1.75863 134.533 1.58735 134.588 1.58642C137.342 1.47984 139.898 1.96747 142.585 1.7291C142.796 1.71089 142.648 1.37245 142.68 1.36615C143.398 1.20773 142.849 2.12762 143.359 2.42081C143.271 1.72948 143.571 1.84861 144.076 1.76205C144.319 1.71978 144.181 1.45426 144.202 1.42633C144.557 1.01126 144.823 1.53237 144.89 1.6387C145.14 2.02982 145.393 1.55647 145.562 1.81788C145.731 2.07733 145.362 2.47452 145.85 2.45964C145.982 2.20884 145.607 1.56799 145.975 1.45546C147.359 1.02969 149.985 1.48833 151.103 1.52113C152.215 1.55374 152.589 1.50147 153.243 1.57974C154.426 1.72145 153.985 1.24799 154.712 1.0155C155.44 0.783149 155.103 1.97244 155.213 2.22507C155.32 2.47763 155.428 2.21402 155.558 2.35169C155.69 2.48931 155.413 2.66688 155.718 2.71435C156.024 2.76174 156.846 2.29603 156.949 2.02837C157.167 1.46127 156.785 0.875666 157.589 1.07091C157.635 1.08252 157.49 1.39601 157.667 1.4247C159.059 1.64256 160.532 1.63573 161.924 1.82842C162.116 1.85541 161.95 2.20392 162.061 2.22354C163.22 2.42921 162.802 1.85115 163.435 1.19425C163.301 2.05905 163.666 2.5821 164.55 2.57597C165.081 2.57265 164.985 2.19696 165.324 1.92711C165.426 1.84577 165.803 2.1 165.869 1.92196C166.086 1.33993 165.719 0.695582 166.638 0.943038C166.679 0.954839 166.554 1.27347 166.694 1.29105C167.595 1.40637 167.696 0.79914 168.659 0.715332C169.405 0.649661 170.77 1.00552 171.631 1.05781C171.622 2.0281 172.432 1.79859 172.752 1.12693C173.3 1.14959 173.925 1.10668 174.464 1.19501C174.651 1.22511 174.531 1.50694 174.554 1.53711C174.918 2.01046 175.156 1.35793 175.276 1.33155C176.56 1.0743 177.666 1.56078 178.897 1.07249C178.941 1.05492 179.009 0.38061 179.342 0.871104C179.363 0.904927 178.957 1.21346 179.537 1.23445C180.132 1.25539 181.252 1.61224 182.057 1.29771C182.253 1.22195 182.74 0.673545 183.153 1.10015C183.207 1.15808 183.148 1.35149 183.227 1.45888C183.479 1.80109 183.615 1.11966 183.91 1.6979C184.205 2.27613 184.815 2.70863 185.622 2.30924C185.646 2.29763 185.847 1.75769 186.109 1.76629C186.528 1.78046 187.117 1.89343 187.545 1.89058C187.75 1.88902 187.619 1.55357 187.655 1.54749C189.014 1.36199 190.048 1.66409 191.511 1.80165C191.79 1.82755 192.585 1.37523 193.103 1.74059C193.679 2.14079 193.047 3.78114 194.403 3.40076C194.891 3.2647 195.508 1.57962 196.294 2.01697C196.39 2.0678 196.49 2.14723 196.591 2.261C198.492 2.01675 200.158 2.59833 202.078 2.26051C202.162 2.24552 202.439 1.66925 202.632 1.68204C202.911 1.70198 203.089 1.97912 203.298 2.0027C204.186 2.10878 204.987 1.90023 205.842 1.96649C206.159 1.99096 206.04 2.26839 206.411 2.2979C206.806 2.32826 207.085 1.96794 207.592 2.16854C207.962 2.32093 208.342 3.09649 208.855 3.20997C208.919 2.46469 209.241 2.49488 209.912 2.33374C210.039 2.30236 209.919 2.03515 209.98 2.00691C210.228 1.88624 210.433 2.11406 210.661 1.98135C210.716 1.94952 210.734 1.69478 210.78 1.65439C211.173 1.30087 211.789 1.91743 211.878 2.02418C212.242 2.43017 212.483 2.11504 212.785 2.28834C213.085 2.46195 212.605 2.61165 212.961 2.73077C213.693 2.97681 214.686 3.02787 215.433 3.12808C215.746 3.1682 215.573 2.80451 215.619 2.80239C216.261 2.79162 216.826 3.24084 217.307 2.63368C217.435 4.4405 217.719 2.518 218.563 3.068C218.628 3.1132 218.511 3.938 218.231 3.9971C218.082 4.02533 217.937 3.95873 217.767 3.89851C217.593 3.83751 217.402 3.78482 217.209 3.84832C217.114 3.87595 216.493 4.56571 216.43 4.60511C215.854 4.89407 215.938 3.65755 215.92 3.58574C215.696 2.81421 214.955 3.57406 214.797 3.61635C214.007 3.79982 213.377 3.57092 212.754 3.71169C212.336 3.80196 212.215 4.60817 211.906 4.56109C210.853 4.40592 210.553 3.25302 209.452 4.17798C209.229 4.37648 209.405 5.27384 208.665 4.53827C208.628 4.49219 208.037 3.82486 207.707 4.21536C207.663 4.26449 207.654 4.52315 207.598 4.54254C207.227 4.66749 206.987 4.45129 206.567 4.5339C206.142 4.61642 205.682 4.74724 205.21 4.6437C204.931 4.58185 204.566 4.08792 204.449 3.96624C204.091 3.61497 203.669 4.16085 203.443 3.74263C203.213 3.32229 203.704 2.7066 203.075 2.42219C203.034 3.09383 202.961 3.78241 202.905 4.4575C201.567 4.39903 200.229 4.15394 198.843 4.16075C198.669 4.16225 198.841 4.52665 198.654 4.5376C197.901 4.58294 197.246 4.31591 196.425 4.40853C196.372 4.41462 196.319 4.4228 196.265 4.43273C195.707 4.54256 195.091 4.86515 194.492 4.94803C194.088 4.17462 193.151 4.4281 192.455 4.3533C192.211 4.3274 192.228 4.122 192.054 4.05386C191.393 3.80194 191.699 4.48383 191.516 4.5898C190.735 5.04241 190.7 3.50295 189.789 3.53745C189.741 3.53872 189.147 4.35721 189.064 4.4081C188.542 4.7398 188.979 4.12227 188.652 4.06078C188.064 3.94855 187.671 3.75186 186.979 3.99143C186.778 4.06239 186.293 4.57343 185.895 4.17787C185.843 4.12607 185.872 3.85488 185.83 3.839C185.081 3.57435 185.07 4.4266 184.645 4.71554C184.221 5.00442 183.556 4.4173 183.42 4.24805C183.064 3.81016 183.691 4.0601 183.71 4.01706C183.934 3.50451 183.45 3.59344 183.077 3.55099C183.02 2.71558 182.499 2.76698 182.689 3.51038C182.71 3.59157 183.002 3.51298 183.077 3.55099C182.743 4.37146 182.195 4.47778 181.569 3.71377C181.276 3.35574 181.553 2.93601 180.661 3.09248C180.256 3.16322 180.415 3.73787 180.056 3.89622C179.232 4.25757 178.2 3.72623 177.351 3.81592C177.045 3.84847 177.345 4.16156 177.136 4.19467C176.575 4.28358 176.093 4.05049 175.544 4.1754C175.494 4.18712 175.618 4.51589 175.447 4.52131C174.148 4.5689 172.99 4.36723 171.639 4.37379C170.985 4.37705 169.783 4.57072 169.116 4.54126C167.946 4.49204 166.452 4.02984 165.461 4.1585C164.806 4.24112 164.953 4.56907 164.674 4.79724C164.135 5.23946 163.154 4.47229 163.021 4.35332C163.017 4.34936 163.587 4.26408 163.28 4.09887C163.098 3.74859 163.027 4.3517 163.021 4.35332C162.929 4.27645 161.807 4.21686 161.581 4.28312C161.46 4.31927 161.532 4.63067 161.469 4.64362C159.955 4.94443 158.439 5.04656 156.9 4.92502C156.873 4.91914 156.908 4.56911 156.844 4.55965C155.948 4.4186 155.382 4.85546 154.658 5.12147C153.931 5.38743 153.346 5.3126 152.9 4.72047C152.345 4.80571 151.544 4.55484 151.087 4.40226C150.628 4.2497 150.577 4.93097 150.537 4.94515C149.295 5.39861 148.547 5.02348 147.254 4.98827C146.637 4.97039 145.41 5.09379 144.739 5.18212C144.207 5.25305 143.89 5.10025 143.404 5.21246C143.338 5.22746 143.411 5.52884 143.392 5.54092C142.856 5.9147 143.101 5.16897 142.986 5.03916C142.569 4.56711 142.311 4.31643 141.618 4.55779C141.458 4.61308 141.012 5.68914 140.719 5.758C140.338 5.84556 140.475 5.46032 140.079 5.56175C140.045 5.57008 140.057 5.80559 139.811 5.80072C138.67 5.78119 137.416 5.67298 136.229 5.72486C136.067 5.73104 136.284 6.09989 136.05 6.11498C134.953 6.18547 133.745 6.20121 132.668 6.0532C132.404 6.01558 132.562 5.74972 132.503 5.67344C132.14 5.21208 131.659 5.90793 131.577 5.92305C129.624 6.30151 128.105 5.72307 126.113 6.07238C126.004 6.09263 125.187 6.84817 124.795 6.23063C124.769 6.18956 124.381 5.55736 124.066 6.00597C124.046 6.03404 124.286 6.35831 123.883 6.336C123.48 6.31377 122.839 6.5532 122.276 6.20579C122.097 6.09637 121.665 5.46741 121.158 5.99371C121.125 6.03036 120.353 7.20951 120.041 6.42105C119.991 6.29125 120.014 5.44623 119.404 5.89745C119.287 5.98488 119.509 6.16651 119.199 6.29346C118.724 6.48903 118.081 6.28252 117.503 6.67648C117.402 6.74616 116.981 7.33226 116.615 6.90874C116.558 6.84241 116.654 6.55754 116.467 6.53185C115.578 6.40836 114.659 6.62616 113.758 6.46034C113.438 6.40217 113.587 5.94166 113.251 5.83048C112.914 5.71935 112.242 5.62403 111.902 5.84357C111.562 6.0632 111.965 6.77607 111.448 6.85143C109.206 7.17869 106.951 6.83108 104.694 6.85083C104.359 6.85373 104.646 7.10317 104.153 7.12612C102.343 7.21117 99.2138 7.57475 97.6193 7.0865C96.3351 6.69545 97.9153 6.29538 96.9405 6.15441C96.4702 6.08741 96.0016 6.95108 95.8906 6.9822C94.8099 7.29642 94.0286 6.95478 93.0428 7.11126C92.8397 7.14369 93.0544 7.47695 92.8814 7.50077C92.2908 7.58521 91.6635 7.45935 91.1027 7.5117C90.8517 7.53595 90.9082 7.79498 90.6721 7.78511C90.1066 7.76458 89.6055 7.67683 89.0494 7.4566C88.9987 7.43654 89.3192 7.0969 88.905 7.10333C88.2322 7.11481 87.407 6.9105 86.6352 7.19594C86.4087 7.28156 86.4271 7.87836 85.9153 7.48948C85.8082 7.40829 85.9056 6.68593 85.3625 7.33164C85.2704 7.43897 84.3527 8.31898 83.8611 7.80356C83.8587 7.801 83.8561 7.79828 83.8535 7.79542C83.7154 7.64675 83.374 7.09954 83.1069 7.20313C83.0701 7.21965 83.2359 7.53265 83.0083 7.57507C82.2059 7.719 81.3651 7.72648 80.5546 7.86802C80.3376 7.90649 80.6816 8.22137 80.3543 8.2683C79.4462 8.39827 78.3154 8.37222 77.4367 8.31468C77.1126 8.29284 77.3206 8.00655 77.2956 7.97791C76.8947 7.51186 76.6958 8.18023 76.5722 8.22519C75.7934 8.49651 75.1791 8.22093 74.4644 8.34203C74.2673 8.37463 74.4252 8.67957 74.3872 8.70963C73.9935 9.00463 74.2669 8.42625 74.0049 8.37867C73.2629 8.24397 72.4398 8.31553 71.7069 8.39758C71.4373 8.42821 71.762 8.77332 71.52 8.79662C70.0944 8.94107 68.5753 8.99612 67.1651 8.88151C66.8957 8.85951 67.0467 8.57017 66.9872 8.50982C66.5761 8.08723 66.0546 8.73003 65.9302 8.79593C65.3637 9.09665 65.1232 8.86396 64.6154 8.94218C62.094 9.33086 59.0093 9.37222 56.6091 9.43949C53.5001 9.5274 51.097 9.43871 48.1414 9.7375C47.9552 9.75606 48.1721 10.1123 48.0121 10.133C45.931 10.3853 43.8651 10.4068 41.79 10.6887C41.6184 10.7113 41.8961 11.0418 41.6219 11.0899C41.0596 11.191 40.345 11.2325 39.7698 11.1689C39.4871 11.1387 39.8358 10.805 39.5497 10.781C38.8828 10.7245 38.1808 10.7604 37.5198 10.8752C37.2387 10.9249 37.6975 11.2466 37.3299 11.2831C34.8041 11.5417 32.3359 11.8302 29.7462 11.607C29.5675 11.5917 29.3436 10.8767 28.9842 11.0522C28.9755 11.2574 28.9998 11.4955 29.0083 11.7131C25.3457 12.1809 21.6923 12.2922 18.0027 12.6359C17.8468 12.6505 18.156 13.0089 17.8546 13.0391C16.1134 13.2145 14.4399 13.4993 12.6151 13.306C12.4346 13.2873 12.4523 12.5982 11.9435 12.7566C11.8548 12.7851 11.079 12.9599 10.8919 13.1293C10.8668 13.1545 11.044 13.4562 10.7922 13.4926C9.33058 13.6985 7.7838 13.793 6.29535 13.7592C6.05519 13.7532 6.27045 13.3881 6.09908 13.3808C4.88501 13.3318 3.61075 13.7309 2.43474 13.5495C1.64687 13.4269 1.86627 12.8123 1.39671 12.2825C1.33031 12.2077 0.855102 12.2468 0.793977 11.9153C0.638974 11.0817 0.767627 10.1364 0.575291 9.25088C0.534245 9.06011 -0.0775228 9.33747 0.247069 8.83003C0.269892 8.79595 0.712996 8.59078 0.808996 8.42019C0.875915 8.30218 0.696484 7.97787 0.842132 7.82024C0.987786 7.66274 1.1959 7.92827 1.44484 7.73455C1.69347 7.53881 1.53371 7.16499 2.06181 7.06084ZM149.015 3.72151C148.584 3.40303 148.544 4.60039 148.998 4.30543C149.02 4.28976 149.037 3.73712 149.015 3.72151ZM200.242 3.25355C199.709 2.71545 199.311 3.48466 199.695 3.89912C200.076 4.31323 200.404 3.41671 200.242 3.25355ZM205.977 3.02225C205.353 2.58397 205.195 4.27613 205.889 3.95719C205.929 3.93922 206.013 3.04772 205.977 3.02225ZM3.26434 11.9124C3.25679 11.8972 2.91467 11.9191 2.90825 11.9356C2.76833 12.3332 3.45238 12.2892 3.26434 11.9124ZM211.673 2.88522C211.492 2.64257 210.878 2.86922 211.117 3.17031C211.312 3.41231 211.9 3.18679 211.673 2.88522ZM126.888 2.95624C126.881 2.9386 126.635 2.92925 126.643 3.02986C126.668 3.35385 127.008 3.25297 126.888 2.95624ZM220.281 4.70033C220.401 4.42426 219.943 3.76914 219.895 3.38844C219.866 3.19157 219.914 3.03542 220.081 2.98774C220.239 2.94845 220.55 2.97309 221.001 3.4116C221.159 3.58622 220.895 3.47024 220.664 3.45656C220.44 3.44613 220.236 3.48715 220.382 3.65339C220.614 3.95224 220.984 4.08024 221.185 4.53298C221.37 4.96838 221.296 5.41361 220.958 5.62685C220.894 5.66928 220.753 5.41507 220.613 5.15345C220.477 4.88092 220.279 4.70885 220.28 4.69897C220.28 4.69942 220.281 4.69987 220.281 4.70033ZM148.743 2.28944C148.734 2.27378 148.392 2.26533 148.384 2.28118C148.207 2.66447 148.895 2.6817 148.743 2.28944ZM112.533 2.6467C112.513 2.6136 111.722 2.60819 111.697 2.64011C111.306 3.27449 112.905 3.28726 112.533 2.6467ZM171.645 1.08356C172.012 0.698063 172.453 0.649166 172.75 1.12645C172.385 1.10413 172.016 1.10367 171.645 1.08356Z" fill="#FFAE00"/>
</svg>
