<svg viewBox="0 0 58 58" fill="none" xmlns="http://www.w3.org/2000/svg" preserveAspectRatio="xMidYMid meet">
<path d="M43.8356 28.1326C43.8356 36.3096 37.2068 42.9384 29.0298 42.9384C26.4044 42.9384 24.135 42.4713 21.9969 41.2728C21.9772 41.2824 21.7598 41.0743 21.7375 41.0806L14.4996 43.1261C14.2192 43.2053 13.9614 42.9445 14.044 42.665L16.0895 35.7418C16.1127 35.6631 15.8318 35.3954 15.8895 35.3504C14.6228 33.1683 14.224 30.8374 14.224 28.1326C14.224 19.9556 20.8528 13.3268 29.0298 13.3268C37.2068 13.3268 43.8356 19.9556 43.8356 28.1326Z" stroke="#FDAC03"/>
<path d="M25.985 26.0832L25.8833 26.2285C25.5324 26.7297 25.4268 27.368 25.7076 27.9117C26.0431 28.5613 26.6252 29.4502 27.5487 30.1684C28.3212 30.7692 29.0936 31.2108 29.6999 31.5116C30.4001 31.859 31.2192 31.6461 31.7449 31.0678C32.3303 30.4239 33.2683 30.2393 34.054 30.6134L35.4771 31.2911C36.1736 31.6228 36.6688 32.3374 36.4915 33.0882C36.2424 34.1426 35.6497 34.5615 34.9516 34.9803C33.7121 35.724 30.1397 35.9057 26.0681 32.3893C21.9965 28.8729 21.6263 26.2819 21.4412 24.6162C21.2241 22.6621 22.5933 21.0755 24.1507 21.1158C24.6809 21.1295 25.075 21.5588 25.2839 22.0463L26.1848 24.1485C26.4574 24.7845 26.3819 25.5163 25.985 26.0832Z" fill="#FDAC03"/>
<rect x="0.5" y="0.5" width="56.1648" height="56.1648" rx="9.5" stroke="#FDAC03"/>
</svg>
